<?xml version="1.0" encoding="utf-8"?>
<svg version="1.1" id="Layer_1" xmlns="http://www.w3.org/2000/svg" xmlns:xlink="http://www.w3.org/1999/xlink" x="0px" y="0px"
	 viewBox="0 0 460.8 460.8" style="enable-background:new 0 0 460.8 460.8;" xml:space="preserve">
<style type="text/css">
	.landmass{fill:#FFB73D;}
	.harbour{fill:#D0E7FF;}
	.track{fill:none;stroke:#000000;stroke-dasharray: 2;

.track {
	fill:none;
	stroke:#000000
	stroke-dasharray: 1000;
	stroke-dashoffset: 1000;
	animation: dash 5s linear forwards;
}

@keyframes dash {
  to {
    stroke-dashoffset: 0;
  }
}

	}
</style>
<circle class="landmass" cx="229.4" cy="230.4" r="219.6"/>
<g>
	<path class="harbour" d="M308.7,23.7l-1-0.5l-1.3-0.6h-1h-1l-1.4,0.3l-0.5,0.3c2.1,0.7,4.2,1.5,6.3,2.3l0.3-0.9L308.7,23.7z"/>
	<path class="harbour" d="M449,230.4c0-86.3-49.8-161-122.2-196.9l-0.1,0.1l-0.1,0.1l-0.1,0.2l-0.1,0.1l-0.1,0.1l-0.1,0.1l-0.1,0.1
		l-0.1,0.1l-0.1,0.1l-0.4,0.6l-0.4,1l-0.1,0.2l-0.9,3.4l-0.1,1.5v0.2l0,0.6v0.5l-0.1,0.8V44l-0.1,0.8v1.8l-0.1,0.7l-0.1,1.1v0.3
		l-0.1,1.1l-0.1,2.3v1.4l0.1,0.3l0.1,1v0.8v0.8l0.2,1.5l0.1,1l0.1,0.2v1v0.8l0.3,1.8l0.6,2.4l0.6,2l0.4,1.1l0.2,0.6l0.6,1.2l0.9,1.6
		l0.6,1.1l0.6,1.1l0.2,0.3l0.2,0.3v0.2l0.1,0.2l0.1,0.2l0.1,0.2l0.2,0.2l0.1,0.2l0.3,0.3l0.1,0.1l-0.2,0l0.1,0.1l0.1,0.1l0.2,0.2
		l0.2,0.1h0.3l0.2,0.1l0.2,0.1l0.2,0.1l0.2,0.1h0.2h0.2h0.1h0.1h0.2l0.2-0.1l0.1-0.1l0.1-0.1l0.4-0.2l0.1-0.1l0.1-0.1l0.1-0.1
		l0.1-0.1l0.1-0.1h0.1h0.1h0.1l0.1-0.1l0.1-0.1v-0.1l0.1-0.1h0.1h0.1h0.1h0.1h0.1h0.2l0.2,0.1l0.2,0.1l0.2,0.1l0.1,0.1l0.1,0.1v0.1
		v0.1v0.1v0.1l0.3,0.5l0.3,0.5l0.4,0.5l0.3,0.5l0.3,0.4l0.3,0.5l0.2,0.4l0.2,0.5l0.3,0.5l0.5,0.4l0.7,0.6l0.2,0.1l0.2,0.5l0.7,0.3
		h0.5l0.9-0.2l1.8-0.5l3-0.1h0.3l2.2,0.5h0.8l0.2-0.1l0.2-0.1l0.3-0.2l0.1-0.1l0.1-0.1l0.1-0.1l0.1-0.1l0.1-0.2V81v-0.1v-0.1v-0.1
		v-0.1v-0.1v-0.2v-0.2V80v-0.1v-0.1v-0.1l-0.1-0.1l-0.1-0.1l-0.1-0.1l-0.1-0.1l-0.1-0.1l-0.1-0.1l-0.1-0.1H350l0,0h-0.1h-0.1h-0.1
		h-0.1h-0.1h-0.1l-0.1-0.1l-0.1-0.1l-0.2-0.2l-0.2-0.4l0.2-0.9l0.1-0.4l0.2-0.4l0.3-0.4l0.6-0.1l0.8-0.1h0.5l0.3,0.1l0.5,0.2
		l0.3,0.1l0.2,0.1l0.2,0.1h0.2l0.2,0.1l0.2,0.2l0.1,0.1l0.2,0.2l0.1,0.2l0.2,0.3l0.2,0.2l0.1,0.2l0.1,0.2l0.1,0.1l0.2,0.1l0.2,0.1
		l0.3,0.1h0.3h0.2l0.2,0.1l0.1,0.2l0.2,0.4l0.2,0.2l0.2,0.2l0.1,0.2l0.3,0.4l0.2,0.3l0.2,0.3l0.2,0.3l0.4,0.5l0.1,0.1l0.1,0.1
		l0.1,0.1l0.1,0.2v0.2l0.1,0.2l0.1,0.2l0.1,0.1l0.2,0.1l0.1,0.1l0.2,0.1l0.2,0.1h0.1l0.2,0.1l0.1,0.1l0.1,0.1h0.1l0.2,0.1l0.1,0.1
		l0.1,0.1l0.1,0.1l0.1,0.1l0.1,0.2l0.1,0.1l0.1,0.1l0.1,0.1l0.1,0.1l0.1,0.1l0.1,0.1l0.1,0.1l0.2,0.1l0.3,0.2l0.1,0.1l0.2,0.1
		l0.2,0.2l0.2,0.2l0.3,0.3l0.2,0.2l0.2,0.2l0.1,0.2l0.3,0.5l0.2,0.3l0.1,0.2l0.1,0.2l0.1,0.2l0.1,0.1l0.1,0.2l0.1,0.2v0.2v0.2v0.2
		v0.2l-0.1,0.5v0.1l-0.1,0.2v0.1V90l0.1,0.1l0.1,0.1l0.1,0.1l0.1,0.1l0.1,0.1v0.1v0.1v0.2v0.3v0.4v0.2V92v0.6v0.2V93v0.2l0.1,0.2
		l0.1,0.2l0.1,0.2l0.1,0.2l0.1,0.2l0.1,0.2l0.1,0.2l0.1,0.2l0.1,0.2l0.1,0.2l0.1,0.1l0.2,0.3l0.2,0.3l0.1,0.1l0.1,0.1l0.1,0.1V96
		v0.1v0.1v0.2v0.1v0.2v0.1v0.1V97v0.1l0.1,0.1l0.1,0.1h0.1h0.1h0.1h0.1h0.1h0.1h0.1v-0.1v-0.1V97v-0.1v-0.1l0.1-0.1h0.1h0.1l0.2-0.1
		l0.2-0.1h0.1h0.1h0.1h0.1h0.1h0.1h0.1h0.1v0.1v0.1v0.1v0.1V97v0.1l-0.1,0.1l-0.1,0.2l-0.1,0.1l-0.1,0.2l-0.1,0.1v0.1V98v0v0.1v0.1
		v0.1v0.1v0.1l0.1,0.2v0.1L368,99v0.2v0.2v0.2v0.7v0.1l0.1,0.1h0.1h0.1l0.2-0.1l0.2-0.1l0.1-0.1l0.1-0.1h0.1h0.1h0.1h0.1h0.1h0.1
		l0.1,0.1l0.1,0.1l0.1,0.1l0.1,0.1v0.2v0.1v0.1v0.2v0.3v0.2l0.1,0.2l0.1,0.2l0.1,0.2l0.5,0.3h0.3h0.2l0.2,0.1l0.3,0.1l0.2-0.1
		l0.4-0.2h0.2l0.2-0.1l0.2-0.2l0.2-0.1h0.3h0.3h0.2h0.3h0.4h0.2h0.3h0.3l0.4,0.1h0.4h0.6h0.4l0.5-0.2h0.4l0.4,0.1l0.3,0.1l0.3,0.2
		l0.2,0.2l0.2,0.3v0.2v0.3v0.3l-0.1,0.3l-0.1,0.3l0.1,0.3l0.2,0.2l0.3,0.1l0.1,0.1v0.3l-0.2,0.3l-0.3,0.4l-0.1,0.3l-0.1,0.3
		l-0.2,0.2l-0.1,0.2l-0.2,0.2l-0.2,0.1l-0.2,0.2l-0.1,0.3v0.2l-0.2,0.4l-0.3,0.4v0.2l-0.1,0.2l-0.2,0.3l-0.1,0.3v0.2l-0.1,0.2v0.3
		v0.2l-0.1,0.2l-0.1,0.1l-0.2,0.2l-0.2,0.5v0.2l0.1,0.2l0.1,0.2v0.2l-0.2,0.5v0.3v0.4v0.7l-0.1,0.3l-0.1,0.4l-0.1,0.3l-0.1,0.3
		l0.1,0.4v0.2v0.2v0.2l-0.2,0.3l-0.2,0.3l-0.4,0.7l-0.1,0.3l-0.2,0.5l-0.1,0.3l-0.1,0.1h-0.2l-0.3-0.1l-0.1-0.1l-0.1-0.2l-0.1-0.1
		l-0.3-0.3l-0.2,0.3l-0.2,0.1l-0.3,0.2l-0.2,0.2l-0.1,0.2l-0.2,0.2l-0.1,0.1l-0.2,0.2l-0.2,0.2l-0.3,0.1l-0.9,0.3h-0.4h-0.3
		l-0.3-0.1l-0.2-0.2l-0.1-0.2v-0.2v-0.1l-0.1-0.1l-0.2-0.1h-0.2H369h-0.2h-0.2l-0.1,0.2l-0.1,0.2l-0.1,0.4l-0.1,0.2l-0.1,0.2
		l-0.2,0.2l-0.2,0.2l-0.1,0.3l-0.2,0.2h-0.2l-0.1,0.1l-0.1,0.2l-0.2,0.4l-0.2,0.3l-0.1,0.2l-0.1,0.2l-0.1,0.3v0.2l0.1,0.2l0.1,0.2
		v0.2v0.2l-0.1,0.2l-0.1,0.3v0.4l-0.1,0.4v0.4v0.3l0.1,0.3l0.2,0.4l0.2,0.3l0.2,0.3l0.1,0.4v0.5l0.1,0.1l0.3,0.3l0.1,0.2l-0.1,0.3
		l-0.1,0.2l-0.5,0.3l-0.1,0.2l0.2,0.1l0.1,0.3l-0.1,0.2l-0.2,0.1l-0.1,0.4v0.4l0.3,0.7l0.1,0.4l0.1,0.4v0.4l-0.1,0.2l-0.2,0.4
		l-0.2,0.2l-0.2,0.3l-0.1,0.4v0.4l-0.1,0.4v0.4l-0.1,0.3l-0.1,0.2l-0.2,0.3l-0.2,0.3l-0.2,0.4l-0.4,0.2l-0.3,0.2l-0.3,0.3l-0.2,0.2
		l-0.1,0.3l-0.2,0.3l-0.3,0.4l-0.2,0.3l-0.2,0.2l-0.3,0.2l-0.5,0.1l-0.2,0.1l-0.3,0.1h-0.4l-1.3,1.1L360,142l-0.1,0.3l-0.1,0.4v0.3
		l-0.1,0.5l0.1,0.5v0.6v0.5l-0.1,0.3l-0.1,0.4l0.1,0.7l0.2,0.8l0.1,0.3l0.1,0.3l0.1,0.2l0.2,0.3l0.1,0.5v0.4v0.3l0.1,0.2l0.2,0.3
		l0.2,0.4l0.2,0.4l0.2,0.2l0.3,0.1l0.3,0.2l0.2,0.3l0.2,0.5v0.6l0.1,0.5l0.1,0.5l0.1,0.5v0.6l0.1,0.4v0.4l-0.2,0.2l0.1,0.3l0.1,0.3
		l-0.1,0.3l-0.6,0.5l-0.1,0.2l-0.2,0.2v0.3l-0.2,0.8l-0.2,0.3l-0.3,0.5l-0.2,0.3l-0.3,0.3l-0.8,0.6l-0.5,0.1l-0.4,0.1l-0.5,0.2
		l-0.3,0.2l-0.2,0.2l-0.3,0.2l-0.9,0.5h0.3l-0.3-0.2l-0.3-0.2l-0.6-0.2l-0.3-0.1l-0.6-0.1h-0.4h-0.4h-0.2l-0.8-0.2l-0.7-0.3
		l-0.7-0.3l-0.9-0.5l-0.4-0.3l-0.4-0.2l-0.4-0.2l-0.5-0.2l-0.5-0.2l-0.4-0.2l-1.9-1.2l-0.5-0.2l-0.5-0.3l-0.6-0.3l-0.7-0.2l-0.7-0.3
		l-1.1-0.6l-0.5-0.2l-0.3-0.2l-0.2-0.3l-0.2-0.3l-0.2-0.4l-0.2-0.3l-0.2-0.3l-0.2-0.2l-0.4-0.1h0.2h-0.9h-0.4l-0.6-0.1l-0.6-0.1
		l-0.5-0.1l-0.5-0.1l-0.4-0.2l-0.4-0.3l-0.2-0.1l-0.4-0.2l-0.4-0.2l-0.3-0.2l-0.2-0.2l-0.2-0.1l-0.4-0.2l-0.2-0.2l-0.4-0.1l-0.2-0.1
		l-0.3-0.2l-0.2-0.2l-0.1-0.1h-0.1l-0.2,0.1l-0.1,0.3l-0.1,0.2l-0.1,0.2l-0.1,0.2l-0.2,0.1h-0.1l-0.2-0.1l-0.3-0.2h-0.3h-0.3
		l-0.3,0.1l-0.3-0.1l-0.4-0.1l-0.4-0.1l-0.2-0.1l-0.2-0.1h-0.2h-0.2h-0.3h-0.5h-0.6h-0.6l-0.6,0.2l-0.6,0.2l0.3-2.3l-0.4,0.3
		l-0.3,0.1l-0.6,0.1h-0.3l-0.3-0.1l-0.3-0.1l-0.4-0.1L322,149l-0.3-0.2l-0.2-0.2l-0.1-0.2l-0.2-0.2l-0.1-0.2l-0.1-0.2l-0.1-0.3
		l-0.1-0.3l-0.1-0.2l-0.2-0.2h-0.2l-0.2-0.2l-0.1-0.2l-0.1-0.1l-0.3-0.4v-0.3l-0.1-0.4v-0.1l-0.4-0.2l-0.1-0.1l-0.4-0.4l-0.4-0.5
		l-0.5-0.5l-0.5-0.4l-0.4-0.4l-0.3-0.5l-0.2-0.7l-0.1-0.6l0.1-0.7l0.2-0.4l0.3-0.6l0.1-0.2l0.2-0.4l0.1-0.2V138l0.1-0.4l0.1-0.4
		v-0.3l-0.1-0.2l-0.1-0.2l-0.3-0.2l-0.1-0.2v-0.2v0.1l-0.1-0.2l-0.1-0.2l-0.2-0.2l-0.2-0.2l-0.3-0.3l-0.3-0.2l-0.4-0.3l-0.3-0.2
		l-0.4-0.2l-0.8-0.2l-0.3-0.1l-0.3-0.1l-0.2-0.1l-0.3-0.3l-0.1-0.3v-0.2l-0.4-0.1l-0.3-0.1l-0.1-0.2l-0.1-0.2v-0.2l-0.1-0.2
		l-0.1-0.1l-0.1-0.1l-0.3-0.1l-0.2-0.1l-0.1-0.2l0.1-0.2l0.1-0.2l-0.1-0.4l-0.1-0.3v0l-28.7-8.8h-0.8l-0.8-0.6l-0.6-0.8l-0.5-0.5
		l-1.3-0.4l-1-1l-0.6-0.6l-0.8-0.5h-1l-1,0.2l-0.8,0.1l-0.8-0.5l-0.9-0.2l-1,0.7l-0.8,1.1l-0.4,1.3l-0.6,1.2l-1,1l-1.6,1l-2.9,1.1
		l-1,0.4l-1,1l-1.1,0.6l-1.5,1l-2.1,0.7l-0.4,0.3l-0.2,0.5l-0.1,0.5l-1,2.4l-0.4,1.1l-0.2,0.5l-0.2,0.9l0.3,1.1l0.4,0.5v0.4
		l-0.2,0.6l0.2,0.2l-0.2,0.7l-0.6,0.3l0.1,0.4l-0.3,0.2l-0.2-0.4l-0.2,0.2l-0.4,1l-1,0.3l-0.9,0.6l-0.3,0.1l-0.5-0.4l-0.5-0.8
		l-1.7-0.1l0.1-1l0.7-2.3v-5.9l-3.1-4.1l-0.3-1.7l-0.4-2.5l-1.5-2.8l-0.6-0.5l-1.5,0.1l-1.4-0.4l-1.5-0.4l-0.8-0.2h-0.7l-0.6,0.3
		l-0.4-0.2l-3.5-2.3l-1.5-0.2l-3.5-0.8l-0.6-0.6l0.8-1.6l-6.4-6.7l-1.6-3.1l1.7-2.1l0.7-0.4l1.4-1.2l1-0.8h0.9l0.2-0.4L225,95
		l-0.1-0.2h-0.4l0.1-0.8l-0.2-0.6l-0.1-0.5l-0.1-0.5l-0.5-0.8l-0.2-0.8v-0.6l-1.1-1.9l-1-1.2l-2,0.4l-1.4,0.9l-1.2,0.4l-0.3-0.4V88
		l0.7-1.2l1-5.5l0.4-1.2l-0.7-0.4l-0.9-0.5l-0.5,0.2V80l-0.4,1.9l-0.5,1.1l-1,0.9l-1.4,0.4l-2.4-0.2l-0.7,0.1h-0.4l-0.3-0.3
		l-0.2,0.2l-0.4-0.2h-0.5l-0.2,0.2h-0.9l-1.1-0.1l-0.6-0.2l-0.2-0.3l-0.7-0.3l-0.6-0.1l-4.3,2l-2.2,4.4l-2.2,2.9l-8.3-1l-7,1.7
		l-1.4-0.2l-1.2-0.8l-1.7-2.3l-0.7-1.7l-0.1-1.9l0.4-0.9l2.5-2.8l7.6-8.2h1l1.1-1l-0.1-0.5l-2.1-1.4l-3.3-2.2l-0.4-1.1l0.6-1.2
		l0.1-2l-1-1.2l-1.5-0.3l-1.8-0.2l-1.6-3.1h-0.9l-0.8-1l0.7-1.2l1.2-0.7l0.1-0.1l2-3l0.4-3.9l0.1-0.5l0.8-3.6l0.1-1l-0.8-2.1
		l0.4-1.3l0.1-1.3l-0.9-0.5l-1.3-2.8l-0.8-2.2l-1.3-3.8l-0.2-0.8l-0.6-1.9l-1.5-1l-2.9-1l-0.9-1l-0.1-1l-0.1-1.2l-1-1l-0.9-1.9
		l-0.2-1c-10.5,3-20.7,6.8-30.6,11.3l0.2,0.1l2.2,1.7l0.9,1l1-0.3l1-0.5l2.5-0.6l3-0.3l1,0.3l0.8-0.1l1.2,0.1l3.1-0.4l4.5-1.3
		l0.2-0.3l0.9-0.4l0.6,0.1l1.2-0.4h0.8l0.3,0.3l0.1,1.8l0.3,0.3l0.3,0.5l-0.2,0.6l-0.2,0.4l0.2,0.2h0.2l0.9,0.2L165,34l0.8,0.5
		l0.2,0.3l0.2,0.2h0.6l1.1,0.6l1,1.4l2.2,7.9l-1.7,3.6l-2.3,0.7l-0.5,0.7l-0.8,1.1l-1.9-1.1l-1.3-0.8l-1.4,0.8l-0.7,0.4l-3.1,0.2
		l-1.9-0.6l-1.3-0.4l-1,0.4l-2.2,0.9l1.2,3.3l-2,2.9l-1.8-0.1l-5.5-3.3l-1.6-2.8l-1.2,1.7l-2.1,0.1l-1.6-2.7l-1-1.6l-2.4-1.7
		l-2.1,1.3l-2.2,0.5l-0.6,1.5l-0.7,1.7l1.8,1.5l-0.6,0.4h-0.5l-0.1,0.2l-0.2,0.3l0.3,0.7l0.7,0.3l1.4-0.4l1-0.6l0.8-1.1l0.9-0.6h1
		l3.6,4.1l3.1,1.3l1,0.5l1.2,1.2l0.3,2.6l-0.5,1.5l-2.2,3.3l-3.8,1.8l-3.1-1v0.1l1.7,1.2l0.9,1.6l2.6,0.7l2-1.1l3.1-0.7l3.3,0.2
		l3.9-1.2l4.3-1l2.5-1.8l1.4-1.8l0.8-2.5l1.1-0.8l2.5,1.8l1.3,2.3l-1.3,1.5l-2.3,4.5l1,1.6l1.3,0.7l0.8,1.2l-1.2,4.6l1.6,3.5
		l0.2,2.1l-1,2l-1.6,0.9l-4.7-0.8l-2.7-1.3l-2.9,2.3l-2,0.2l-3.9-5l-3.5,5l-4.3,0.5l2.5,1.1l1.6,2.4l0.3,1.3l0.1,0.5l0.1,0.5
		l-0.4,0.6l-1,0.8l-4.8,1.9l-1,0.7l-1.6,0.3h-1.6l-3.1-1.6v1l0.2,0.1l1.8,1.2l1,0.8l0.6,1.3l4-0.7l1.1-0.2l1.6-0.3l0.6,0.3l0.7,0.4
		l0.1,0.1l0.2,0.8l0.5,0.5l0.1-0.1h0.1l0.9-0.8l2.7-0.8l4-4.6l1.4-0.2l3.2,0.5l3.4,1.7l0.7,0.3l3.7-1.3l1.5,0.3l1,1l0.4,0.4l1.1,1.1
		l1.6,0.5l1.1,3.1l-0.6,2.1l-0.3,0.2l-1.1,0.8l-0.1,1.4l-1.7,3.1l0.3,2.1l-0.4,2.6l-1.6,2.3l0.1,2.4l1.1,1.1l1.3,0.9l1.3,0.3
		l0.3,0.3l1.6,2l-0.2,0.5L167,125l-4.7-0.2l-4.5,3.1l-0.5,0.9l-2.3,1.6l-0.7,0.2l-0.8,0.2l-0.9-0.9l-1.5,0.1l-0.5-0.8l-2.6-0.3
		l-0.5-2.2l-2.4-1.1l-1,0.2l-0.3,1.4l1,1.1l1,1.9v1.1l0.8,1.1l0.1,0.6l-0.1,0.7l-0.4,0.6l-1,1l-0.6,0.5l-0.8,0.5l-0.4,0.1l-0.4-0.2
		l-0.4,0.3h-0.4l-0.6,0.2h-0.7l-1,0.7l-0.8,0.5l-0.7,0.1l-1.1,0.7l-0.7,0.5L136,139l-0.4,0.1l-0.4-0.5l-0.5-0.3h-0.8l-1.1,0.4
		l-0.4,0.4l-0.3,0.5l-0.2,0.8l0.1,0.4l0.2,0.4l0.8,1.2l1.1,0.3l2.5,0.1l1.5,0.7l0.4,0.7l3.6-1.8l1.4-0.7l2.4-0.2l2.1,0.3l1.9-0.4
		l0.7-0.1h0.4h0.2l0.1,0.1l-0.1,0.3v0.2l-0.1,0.3l-0.2,0.4v0.4l-0.2,0.2l-1.9,1.8l-0.6,0.6l-1.7,4.6l-1,0.9v0.1l0.1,0.2l1.8,2.4
		l0.2,0.1l1.1-0.2l1.1,0.2l0.6,0.2l0.5-0.3l-0.1-3.2l0.4-1.4l1.8-2.3l2.1-1.4l2.8-3.7l0.9-3.1l0.8-1.1h1.1l1.4,0.6l1.6-0.6l1.1-1.5
		l0.2,0.2l0.2-0.3l0.2-0.3l-0.2-0.2l1.6-2.3l4.5,2.7l-0.1-2.4l2.3-1l9.7,1.5l3.5,3.1l0.6-1.3l-0.3-3.9l-3-3.9l-0.9-3.3l-2-3.5
		l-1.7-1.3l-1.5-1l-0.3-0.1l-0.8-0.5l-0.4-0.6v-0.2l0.1-0.3l0.2-0.2l1.5-0.1h0.6h0.1l0.3-0.1l0.1-0.1l0.1-0.2l0.2-0.2l0.1-0.2
		l0.1-0.2v-0.1l0.1-0.2l0.4-0.2h0.1l-0.1-0.2l0.1-0.1h0.1l0.1,0.1v-0.1l0.1-0.1l0.1-0.1l0.1-0.2l0.1-0.2l0.1-1.1l1-1.7l0.2-1.5
		l0.4-0.2l0.8-1l0.4-1v-0.4l-0.2-0.3l-0.2-0.2l-0.1-0.8l0.8-0.5l0.6-0.1l1.1,0.2l1.3,0.2l1.8-0.2l2,0.5l1.2-0.2l0.9-0.3l0.8-0.1
		l0.9,0.3l1,0.5l0.8,0.5l0.7,0.5l1.3,1.7l0.3,0.9l0.1,0.7l-0.1,0.6l0.2,0.1h0.6l0.1,0.1l0.1,0.1l0.5,0.2l0.6,0.1h0.7l0.7-0.4
		l0.4-0.4l1.4-2l1-2l0.9-3.3l0.4-2.8l-0.1-7.3v-1l0.4-1l-0.1-1l0.4-0.6l0.3-0.2l0.2,0.2v0.3l0.6,0.2l0.2,0.3v0.3l0.4,0.1l0.3,0.3
		l0.1,0.4h0.3l0.2,1.2l-0.2,1.9l0.1,1.1l1.1,2.3l1.2,1.7l1.2,1.7l0.3,1l0.4,1.1l1,2.2l-4.2,6.9l-0.5,3.4l0.4,0.8v1.6l0.2,0.7
		l0.3,1.3l2.1,2.2l0.4,0.9l1.4,3.4l1.5,2.7l0.4,0.1l0.4-0.3l0.9,0.3l0.9,0.2l0.3-0.4l0.3,0.3l1.3,0.3l2.6-0.6l2.1,0.9l1,1.4l0.8,1.8
		l0.3,1.7l-1,3.3l1.1,2.8l0.4,1.7L227,145l-1-0.2l-1.3-0.5l-1.2,0.7l-1.4,2.7l-0.1,3.8l0.7,2.6l0.7,1.4l2.4,0.1l0.9,0.3v0.6
		l-0.8,0.8l-1.4,1l-1,0.1l-1,0.2l-0.3,0.9v1.3l0.1,0.9l0.9,3.9l0.7,1.8l1.5,2.9l2.3,2.1l1.3,0.8l2.1,0.7l1.7,0.3l2-0.5l1.5-1.4
		l-0.9-0.8v-2.8l1-0.9l2.8-1.2l2.9,0.1l1.8,1l3.3-0.7l2.4-1.4l4.2-0.3l1.3-0.6v-3.8l8.3-2.9l0.5,0.8l0.5-0.2h0.1l0.1,0.1l0.1,0.1
		l0.1,0.1l0.1,0.1l0.1,0.1l0.1,0.1l0.1,0.2l0.2,0.4l0.3,0.5l0.2,0.2l0.2,0.2l0.4,0.7l0.3,0.5l0.1,0.3l0.1,0.4l0.2,0.5l0.3,0.6
		l0.1,0.4l0.4,0.8l0.2,0.4l0.2,0.1l0.4,0.2l0.1,0.1l0.1,0.1l0.2,0.2l0.2,0.3l0.1,0.2l0.1,0.2l0.1,0.2l0.1,0.2l0.1,0.2v0.2v0.2v0.2
		l0.1,0.2l0.1,0.1l0.1,0.2l0.2,0.3l0.1,0.2l0.1,0.2l0.5,0.7l0.3,0.4l0.1,0.1l0.2,0.3l0.1,0.2l0.1,0.2l0.1,0.2l0.1,0.2v0.2v0.2v0.2
		v0.2v0.2v0.1v0.1l-0.1,0.1l-0.1,0.1l-0.1,0.1l-0.1,0.1l-0.1,0.1l-0.1,0.1l-0.3,0.4l-0.1,0.2L271,174l-0.1,0.2l-0.2,0.1l-0.2,0.1
		l-0.2,0.1l-0.2,0.1l-0.2,0.1h-0.2h-0.2h-0.2h-0.2l-0.6,0.1H268h-0.4h-0.8H266h-0.3h-0.3h-0.2H265l-0.5-0.1l-0.4-0.1l-0.3-0.1h-0.2
		h-0.2h-0.2H263l0,0h-0.2h-0.2h-0.2h-0.2H262h-0.2h-0.2h-0.2l-0.2,0.1l-0.2,0.1l-0.2,0.1l-0.1,0.1l-0.1,0.1l-0.1,0.1l-0.1,0.1
		l-0.1,0.1l-0.1,0.1l-0.1,0.2l-0.1,0.2l-0.1,0.2l-0.2,0.4l-0.2,0.4l-0.1,0.2l-0.1,0.2l-0.1,0.2l-0.1,0.2l-0.1,0.2l-0.1,0.5l-0.2,0.7
		l-0.1,0.2l-0.1,0.2l-0.1,0.2l-0.1,0.2l-0.1,0.2l-0.1,0.2l-0.1,0.2l-0.1,0.2l-0.1,0.2l-0.1,0.2l-0.1,0.2l-0.1,0.2l-0.2,0.2l-0.1,0.1
		l-0.2,0.1l-0.2,0.1l-0.2,0.1l-0.2,0.1l-0.2,0.1l-0.2,0.1l-0.2,0.1l-0.2,0.1h-0.2h-0.2H255h-0.2h0.2h-0.2h-0.2h-0.2h-0.2H254h-0.2
		l-0.2-0.1l-0.2-0.1l-0.2-0.1l-0.4-0.2l-0.1-0.1l-0.1-0.1l-0.3-0.2l-0.3-0.2l0-1.4l-0.2-0.1l-0.2-0.1l-0.2-0.1l-0.2-0.1l-0.2-0.1
		h-0.2h-0.2h-0.2h-0.2H250h-0.4h-0.2H249h-0.2h-0.2l-0.2,0.1l-0.2,0.1l-0.1,0.1l-0.1,0.1v0.1l-0.1,0.1l-0.1,0.1l-0.1,0.1l-0.1,0.1
		l-0.1,0.2l-0.1,0.3l-0.1,0.3v0.3v0.3v0.3v0.4v1l-0.1,0.5l0.1,0.9l0.1,2.5v0.2l0.1,0.2l-0.1,0.1l-0.1,0.9l-0.1,0.5l-0.1,0.5l0.1,0.2
		l-0.1,0.2l0.1,0.2l0.1,1.5l-0.2,2.3v1l0.1,0.7l0.1,0.6l0.2,0.5l0.3,0.5l0.1,0.6l0.2,0.4l0.2,0.3l0.2,0.5l0.2,0.5l0.3,0.3l0.2,0.4
		l0.1,0.5l0.2,0.7l0.1,0.6l-0.2,0.3l-0.1,0.4l-0.1,0.5v0.7v0.6l0.1,1v0.4v0.5l-0.1,0.6l-0.1,0.4l-0.2,0.2l-0.4,0.1l-0.6-0.1l-1-0.2
		l-0.6-0.1h-0.6h-0.6l-0.8,0.1l-0.3,0.1l-0.8,0.2l-0.7,0.3l-0.6,0.2l-0.4,0.1l-0.5,0.1h-0.4l-1,0.1L239,209l-0.7,0.1l-1,0.3
		l-0.4,0.2l-0.4,0.2L236,210l-0.4,0.2l-0.7,0.2l-0.4,0.1l-0.2,0.2l-0.3,0.4l-0.3,0.4l-0.3,0.2l-0.3,0.1l-0.8,0.5l-0.1,0.1h-0.1H232
		h-0.1h-0.1h-0.1h-0.1h-0.1h-0.1l-0.1-0.1h0.7h-0.1h-0.1l-0.1-0.1l-0.1-0.1l-0.1-0.2l-0.1-0.1l-0.1-0.1l-0.5-0.6l-0.2-0.2l-0.1-0.1
		l-0.1-0.1l-0.1-0.1l-0.1-0.2l-0.1-0.1l-0.1-0.1l-0.1-0.1l-0.1-0.1h-0.1l-0.1-0.1l-0.1-0.1l-0.2-0.1h-0.2H229h-0.2h-0.2h-0.1h-0.2
		h-0.1l-0.1,0.1L228,209l-0.2,0.1l-0.2,0.1l-0.1,0.1l-0.2,0.1l-0.1,0.1l-0.3,0.1l-0.1,0.1l-0.1,0.1l-0.1,0.1l-0.1,0.1l-0.3,0.2
		l-0.1,0.1l-0.1,0.1l-0.2,0.2l-0.1,0.1l-0.1,0.1l-0.1,0.1l-0.1,0.1l-0.1,0.1l-0.1,0.1l-0.1,0.1l-0.1,0.2l-0.3,0.4l-0.3,0.5l-0.1,0.2
		l-0.1,0.2l-0.1,0.2v0.1v0.1v0.1v0.1v0.1v0.1v0.1v0.1v0.1v0.1v0.1l0.1,0.3l0.1,0.1v0.1l0.1,0.1l0.1,0.1l0.1,0.1v0.1v0.1v0.1v0.1
		l-0.1,0.2v0.1v0.1v0.1v0.1v0.1v0.1v0.2l0.1,0.2l0.1,0.2l0.1,0.2l0.1,0.2l0.1,0.1l0.1,0.1l0.1,0.1l0.1,0.1l0.1,0.1l0.1,0.1l0.1,0.1
		l0.1,0.1l0.4,0.2l0.6,0.3l0.2,0.1l0.2,0.1l0.5,0.4l0.2,0.1l0.2,0.1l0.4,0.2l0.2,0.1l0.2,0.1l0.3,0.2l0.2,0.1l0.1,0.1l0.1,0.1v0.1
		v0.1v0.3v0.2l-0.1,1v0.4v0.4v0.5v0.2v0.2v0.2v0.2l0.2,0.7l0.4,0.7l0.1,0.3l-0.1,0.3l-0.1,0.3v0.3v0.3l-0.2,0.3l-0.2,0.1l-0.3-0.1
		l-0.3-0.3l-0.3-0.3l-0.3-0.2l-0.4-0.1l-0.4,0.1l-0.1,0.3v0.4v0.4l-0.1,0.4l-0.3,0.3l-0.4,0.2l-0.4,0.2l-0.5,0.1l-0.4,0.1L225,228
		l-0.4,0.1h-0.4l-0.6-0.1l-0.4-0.2l-0.2-0.2l-0.1-0.2l0.1-0.2l0.2-0.2l0.1-0.2v-0.2l-0.2-0.2l-0.4-0.2h-0.1h-0.2h-0.1h-0.1l-0.2,0.1
		h0l-0.2,0.1h-0.1h-0.2h-0.2h-0.2H221h-0.2l-0.2-0.1l-0.2-0.1l-0.2-0.1L220,226l-0.2-0.2l-0.2-0.2l-0.2-0.2l-0.2-0.2L219,225
		l-0.2-0.1l-0.2-0.1l-0.2-0.1l-0.2-0.1l-0.2-0.1h0h-0.2h-0.2h-0.2l-0.2-0.1l-0.2-0.1l-0.2-0.2l-0.2-0.2l-0.1-0.2l-0.1-0.2l-0.1-0.2
		l-0.1-0.2l-0.1-0.2l-0.1-0.2l-0.1-0.1l-0.2-0.1h-0.2h-0.2h-0.2h-0.4l-0.5,0.1H214h-0.3h-0.3h-0.3h-0.3h-0.3h-0.3h-0.3h0.1h-0.3
		h-0.3h-0.3l-0.3-0.1l-0.3-0.1l-0.2-0.1l-0.2-0.1l-0.2-0.1l-0.2-0.1l-0.2-0.1l-0.2-0.1l-0.2-0.1l-0.3-0.2l-0.2-0.1l-0.2-0.1
		l-0.4-0.2l-0.6,0.3l-0.4,0.4l0.2,0.4l0.1,0.2l0.1,0.2l0.1,0.2l0.1,0.2v0.2v0.2l-0.1,0.2v0.2v0.2v0.2v0.2v0.2l-0.1,0.3l-0.1,0.6
		l-0.1,0.3v0.3v0.2v0.2v0.2v0.2v0.2l0.1,0.3l0.1,0.3l0.2,0.6l0.3,0.8l0.1,0.3l0.1,0.3l0.1,0.3v0.2v0.3v0.2l0.1,0.1l0.2,0.2l0.3,0.1
		l0.3,0.1l0.3,0.1h0.3h0.2h0.3h0.2h0.2h0.2l0.2,0.1l0.2,0.1l0.2,0.1l0.2,0.1l0.2,0.2l0.2,0.2l0.1,0.2l0.1,0.2l0.1,0.2l0.1,0.3v0.3
		v0.3v0.3l-0.1,0.3l0.4,0.8l-0.4,0.8l-0.2,0.4l-0.2,0.4l-0.3,0.7l-0.1,0.3l-0.1,0.3l-0.1,0.3l-0.2,0.5L211,239l-0.1,0.3v0.3v0.2v0.2
		l0.1,0.2v0.2v0.2l-0.1,0.3l-0.1,0.2l-0.2,0.5l-0.1,0.2l-0.3,0.6l-0.1,0.3L210,243l-0.1,0.3l-0.1,0.3v0.3v0.3v0.3v0.3v0.2v0.2v0.2
		v0.2v0.2v0.1l-0.1,0.3v0.1v0.1v0.2l0.1,0.2l0.1,0.2l0.1,0.1l0.1,0.1l0.1,0.1l0.2,0.2l0.1,0.1l0.1,0.1v0.1v0.1v0.1v0.1v0.1h-0.1
		h-0.1h-0.1h-0.1h-0.1l-0.1,0.1l-0.1,0.1l-0.1,0.2v0.2v0.2v0.2v0.2v0.2l0.1,0.2l0.1,0.1l0.1,0.2l0.2,0.1l0.2,0.1l0.2,0.1l0.2,0.1
		l0.3,0.1l0.3,0.1l0.3,0.2l0.2,0.2l0.2,0.2l0.1,0.2l0.1,0.3l0.1,0.3v0.3v0.3v0.4l-0.1,0.4l-0.1,0.4l-0.3,0.8l-0.2,0.4l-0.2,0.4
		l-0.2,0.4l-0.2,0.4l-0.2,0.4l-0.2,0.3l-0.3,0.3l-0.3,0.3l-0.3,0.3l-0.3,0.3l-0.3,0.2l-0.3,0.2l-0.3,0.2l-0.3,0.1l-0.3,0.1h-0.2
		h-0.2h-0.2l-0.2,0.1l-0.3,0.2l-0.4,0.2l-0.3-0.3v-0.4l0.1-0.4l-0.1-0.1l-0.1-0.1l-0.2-0.1l-0.6-0.5l-0.2-0.2l-0.1-0.1l-0.3-0.2
		l-0.2-0.2l-0.2-0.2l-0.2-0.3l-0.2-0.3l-0.2-0.3l-0.1-0.3l-0.1-0.3l-0.2-0.7l-0.1-0.4l-0.1-0.4l-0.3-0.8l-0.1-0.4l-0.1-0.4l-0.1-0.3
		l-0.2-0.7l-0.1-0.4l-0.1-0.4l-0.1-0.3l-0.1-0.3l-0.1-0.3l-0.1-0.3v-0.3v-0.3v-0.3V247v-0.3v-0.3l0.1-0.6l0.1-0.6l0.1-0.6l0.1-0.6
		l0.1-0.6l0.1-0.4l0.1-0.4l0.1-0.4l0.1-0.4v-0.4v-0.2V241v-0.2v0.2v-0.1v-0.1v-0.1l-0.1-0.1l-0.1-0.1l-0.1-0.3l-0.1-0.2l-0.1-0.2
		l-0.1-0.1l-0.3-0.3l-0.1-0.1l-0.3-0.3l-0.1-0.1l-0.1-0.1l-0.1-0.1l-0.1-0.1l-0.1-0.1l-0.2-0.1v-0.1v-0.1v-0.1V238v0v-0.1l0.1-0.1
		l0.1-0.1l0.1-0.1l0.1-0.1l0.1-0.1v-0.2V237l-0.1-0.2l-0.1-0.4l-0.1-0.2l-0.1-0.2l-0.1-0.2l-0.1-0.2l-0.1-0.2l-0.1-0.1l-0.1-0.1
		l-0.2-0.2l-0.1-0.1l-0.2-0.1l-0.4-0.3l-0.2-0.2l-0.2-0.1l-0.1-0.1l-0.2-0.1l-0.2-0.1l0.5,0.1l-0.4-0.2l-0.2-0.1l-0.4-0.2l-0.2-0.1
		l-0.2-0.1l-0.2-0.1l-0.2-0.2l-0.2-0.2l-0.2-0.2l-0.2-0.2l-0.3-0.3l-0.2-0.2l-0.2-0.1l-0.3-0.2l-0.3-0.2l-0.3-0.1l-0.3-0.1l-0.3-0.1
		l-0.3-0.1l-0.3,0.1h-0.2l-0.5,0.2l-0.2,0.1l-0.4,0.2l-0.1,0.1l-0.2,0.1H192h-0.2h-0.4h-0.2H191l-0.3,0.1h-0.2h-0.2h-0.2h-0.2h-0.2
		h-0.2h-0.2l-0.2-0.1l-0.2-0.1h-0.5l-0.2-0.1l-0.2-0.2l-0.2-0.2l-0.2-0.2l0.4,0l-0.2-0.4l-0.1-0.2l-0.1-0.2l-0.1-0.2l-0.1-0.2
		l-0.1-0.2l-0.1-0.3l-0.1-0.3l-0.1-0.3l-0.1-0.3v-0.3V228l-0.1-0.2l-0.1-0.2l-0.1-0.1l-0.1-0.1h-0.2h-0.2H186h-0.2l-0.5-0.1h-0.2
		H185h-0.6h-0.1h-0.1h-0.1l-0.1,0.2l-0.1,0.2l-0.2,0.3l-0.1,0.2l-0.1,0.2l-0.1,0.2l-0.1,0.1l-0.1,0.1l-0.2,0.1l0,0.1l-0.2,0.1h-0.2
		h-0.1h-0.1h-0.1h-0.1l-0.1-0.1v-0.1v-0.2l0.1-0.2l0.1-0.2l0.1-0.2l0.1-0.1l0.1-0.1l0.1-0.2l0.1-0.1l0.1-0.2l0.1-0.2l0.1-0.2
		l0.1-0.4l0.2-0.8l0.1-0.2l0.1-0.4v-0.3v-0.2l0.1-0.2l0.1-0.2l0.1-0.2l0.1-0.1l0.1-0.1l0.1-0.1l0.1-0.1l0.1-0.1l0.1-0.2v-0.2V223
		v-0.2v-0.2l0.1-0.5v-0.3v-0.5v-0.5v-0.3v-0.2v-0.1v-0.1l0.1-0.2v-0.1v-0.1v0.3v-0.1v-0.1v-0.2v-0.1l-0.1-0.3v-0.1l-0.1-0.5v-0.2
		v-0.2V218v0l0.1-0.1l0.1-0.1v-0.1v-0.1l0.1-0.3l0.1-0.2V217v0v-0.1v-0.2v-0.2v-0.2v-0.1V216v-0.1v-0.1v-0.1v-0.1v-0.1v-0.2v-0.2
		l-0.1-0.2l-0.1-0.2l-0.1-0.1l-0.1-0.1l-0.1-0.1l-0.1-0.1l-0.1-0.1l-0.1-0.1L184,214v0l-0.2-0.1l-0.2-0.1l-0.1-0.2v-0.3l0.1-0.3
		l0.1-0.3l0.1-0.3l0.1-0.2l-0.9-0.4l-1-0.4l-0.6-0.2l-0.3,0.2l-0.2,0.2l-0.1,0.2l-0.3,0.4l-0.1,0.2l-0.1,0.2l-0.1,0.2l-0.1,0.2
		l-0.1,0.2l-0.1,0.1l-0.3,0.3l-0.1,0.1l-0.2,0.3v0.1v0.1v0.1l-0.1,0.2l-0.1,0.1l-0.1,0.2l-0.1,0.1l-0.1,0.1l-0.2,0.5l-0.1,0.5
		l-0.1,0.3l-0.1,0.3l-0.1,0.3l-0.1,0.6l-0.1,0.4l-0.1,0.7l-0.1,0.3l-0.1,0.3l-0.1,0.4l-0.1,0.3l-0.1,0.3l-0.1,0.4v0.1l-0.2,0.4
		l-0.1,0.3l-0.2,0.3l-0.2,0.3l-0.2,0.3l-0.2,0.3l-0.2,0.3l-0.2,0.3l-0.2,0.3l-0.2,0.3l-0.2,0.3l-0.2,0.3l-0.3,0.5l-0.2,0.2l-0.1,0.2
		l-0.1,0.3l-0.1,0.1l-0.3,0.4l-0.3,0.4l-0.5,0.5l-0.2,0.2l-0.2,0.2l-0.2,0.1l-0.2,0.1h-0.2h-0.2h-0.2h0.3h-0.1l-0.2-0.1l-0.1-0.2
		l-0.1-0.2l-0.1-0.2l-0.1-0.2l-0.3-0.4l-0.1-0.2l-0.1-0.2l-0.1-0.2l-0.1-0.3l-0.1-0.3l-0.1-0.3l-0.1-0.3l-0.1-0.3v-0.3v-0.3V223
		v-0.3v-0.4l-0.1-0.4l-0.1-0.4l-0.1-0.3l-0.2-0.7l-0.1-0.4l-0.1-0.4l-0.1-0.3l-0.1-0.3l-0.1-0.2l-0.1-0.2l-0.1-0.2l-0.1-0.2
		l-0.1-0.2l-0.1-0.3l-0.1-0.3l-0.1-0.3l-0.1-0.3l-0.1-0.3l-0.3-0.8l-0.1-0.4l0.1-0.4l-0.2-0.4l-0.2-0.3l-0.2-0.4l-0.2-0.3l-0.2-0.3
		l-0.2-0.3l-0.1-0.3l-0.1-0.3V212v-0.3v-0.3v-0.2v-0.1v-0.2v0.1l0.1-0.1l0.1-0.2l0.1-0.2l0.1-0.2l0.2-0.2l0.2-0.1h0.2h0.2h0.2h0.2
		h0.2h0.2l0.2-0.1l0.2-0.1l0.2-0.1l0.2-0.1l0.2-0.2l0.2-0.2l0.2-0.2l0.2-0.2l0.2-0.2l0.1-0.2l0.1-0.2l0.1-0.3l0.1-0.2l0.2-0.4
		l0.2-0.4l0.1-0.2v-0.1l0.1-0.2l0.1-0.2v-0.1V206v-0.1v0.1v-0.1v-0.1v-0.2v-0.1v-0.2v-0.2V205l0,0v-0.2v-0.1v-0.1l-0.1-0.2v-0.1
		v-0.1v-0.1V204v-0.1v-0.1v-0.2l0.1-2.5l-0.9-0.3h-0.1h-0.1h-0.1h-0.1H170l-0.1,0.1l-0.1,0.1l-0.1,0.1l-0.1,0.1v0.1l-0.8,1.9
		l0.2,0.1v0.2l-0.1,0.4l-0.1-0.1l-0.6,0.8l-0.2,0.3l0.1,0.2l-0.6,0.2l-0.1-0.2l-0.6,0.1l-0.5,0.1l-0.5,0.1h-0.5H165h-0.6h-0.6H163
		h-0.6l-0.6-0.1h-0.2l-0.4-0.1H161h0l-0.2,0.2l-0.2,0.4l-0.1,0.9l-0.1,0.5l0.1,0.6l0.2,0.4l0.4,1v0.5l0.1,0.5l0.2,1v0.3l0.5,0.6
		l0.4,0.6l0.4,0.7l0.4,0.8l0.2,0.6l0.4,0.7v0.3l-0.1,0.4v0.5l-0.2,0.7l0.1,0.8l0.1,1.3l0.1,0.2l0.2-0.1l0.3,0.2l0.2,0.2l-0.3,0.9
		l-0.2,0.3l-0.4,0.4l-0.4,0.4l-0.4,0.1l-0.2,0.2l0.2,1.2l0.2,0.7l0.4,1.4l0.1,0.2l0.5,0.9l0.2,1.2l0.1,0.4l0.4,0.6l0.6,1l0.4,1
		l0.1,0.5l0.2,0.6l0.3,0.8l0.1,1l-0.1,1.4v0.3l0.1,0.5l0.2,0.3l0.5,0.7l0.4,0.6l0.6,0.5l1.1,0.9l1.1,0.7l0.6,0.5l0.3,0.6l0.2,0.8
		v0.6l-0.5,0.4l-0.8-0.1l-1.6-0.7l-0.6-0.7l-0.4-0.1l-0.6-0.4l-0.6-0.8v-0.1l-0.1-0.2l-0.4-0.2L165,238l-1.5-0.9l-1-0.6l-0.4-0.7
		l-0.6-0.9l-1-0.7l-0.6-0.3l-0.7-0.3l-0.3-0.5l-0.3-0.9l-0.2-0.2l-0.8-1l-0.6-0.6l-1-1l-0.7-0.6l-0.6-0.6v-0.7l-0.8-1.1l-0.4-0.5
		l-0.2-0.5l-0.1-0.7l-0.1-1l-0.1-0.8v-1v-1l-0.1-0.7l-0.4-0.7l-0.8-1.1l-0.1-0.2l-0.3-0.4l-0.4-0.6l-0.4-0.7l-0.4-0.9l0.2-0.5v-0.4
		l-0.3-0.4v-0.8l0.3-0.6l-0.2-0.4L150,213l-0.6-0.6l-0.3-0.5l-0.3-0.6l-0.1-0.8l-0.2-0.1l-0.3,0.3l-0.1,0.4l-0.3,1v0.7v0.8l0.1,0.2
		l-0.3,0.3l-0.1,0.5l-0.2,0.6l-0.1,0.7l-0.2,0.7l0.1,0.9l0.3,1.8v0.4l-0.1,0.3l0.2,1.3l0.2,2.1l0.1,1l0.2,0.9l0.6,1.9l0.5,1.7
		l0.4,1.2l0.3,0.7l0.1,0.5v0.1l-0.2,0.8v0.8l-0.2,1l-0.3,0.5l-0.4,0.5l-0.3,0.1h-0.4l-0.6-0.1l-0.5-0.2l-0.7-0.2l-1.5-0.3l-0.4-0.1
		L144,234l-0.4-0.4l-0.3-1.2l-0.2-1.4l-0.2-0.9l-0.3-0.6l-0.4-1l-0.3-0.8v-0.5l-0.1-0.7l-0.5-0.8l-0.3-0.8l-0.2-0.5l-0.2-0.4
		l-0.1-0.4l-0.2-0.4l-0.2-0.5l-0.2-0.4l-0.6-0.6l-0.6-0.5l-0.6-0.3l-0.7-0.4l-0.5-0.3l-0.3-0.1l-0.2-0.4l-0.5-0.5l-0.2-0.3l-1.8-0.8
		l-0.4-0.1h-0.3l-0.3,0.1l-0.4,0.1l-0.5,0.3l-0.1,0.3l-0.2,0.3l-0.1,0.1l-0.1,0.2l-0.1,0.1l-0.2,0.1H131h-0.2v-0.2l-0.2-0.1
		l-0.4-0.5l-0.2-0.1h-0.3h-0.1l-0.2-0.1l-0.2-0.5l-0.6-0.5l-1.4-0.9l-0.5-0.3l-1.5-1.1H125l-1.2-1l-0.4-0.3l-2.5,2.1l0.9,1.7
		l0.6,0.3l0.7,0.6l0.5,0.2l0.3,0.3l0.7,0.6h0.2l0.7-0.1l3.9,5.2l-0.3,0.3l-0.6-0.7l-0.4,0.2l0.5,0.6l0.4,0.7v0.1l0.2,0.2l0.2,0.1
		h0.2l0.4,0.7l0.4,1l0.2,1.4l-0.4,0.4H130h-0.3l-0.4-0.1l-4.1-0.2H125l-1.2-0.9l0.2-0.3l-0.7-0.4v0l-0.9-0.5v0.2v0.1l-0.3,0.1
		l-0.8,1.3l0.5,0.2v0.6l-0.3-0.1l0.9,1.3l0.2-0.2l0.7,1l2.3,0.7l0.4,0.2l0.2,0.3l1,0.7l1.2,1.5l0.6,0.5l0.3-0.1h0.1l0.2,0.3l0.7,0.3
		h0.2l1.5,0.9l0.7,0.3l0.1,0.2l0.1,0.4l0.1,0.5l0.1,0.4l0.4,0.3l0.7,0.4l0.3,0.2l-0.1,0.2l-0.1,0.3l-0.3,0.4l-0.1,0.2l0.1,0.6h0.2
		l0.1,0.4l0.9,0.4l0.2,0.4l0.1,0.3l-0.1,0.2l-0.1,0.1l0.1,0.1h0.1v0.2l-0.2,0.4l-0.2,0.2l-0.2,0.1l-0.2,0.4l-0.3,0.3l-0.2,0.4
		l-0.4,0.9l-0.3,0.7l-0.1,0.2v0.4l0.1,0.1l0.3,1l0.1,0.3l0.1,0.7v0.8l-0.1,0.9l-0.3,0.4l-0.5,0.4l-0.4,0.3l-0.5,0.4l-0.2,0.4
		l-0.4,0.6l-0.2,0.3l-0.1,0.5l-0.1,0.2v0.2l-0.1,0.3l-0.1,0.1l-0.2-0.1h-0.2l-0.2-0.2h-0.2h-0.3l-0.3-0.2l-0.1-0.2h-0.2l-0.4-0.2
		l0.1-0.2l-0.1-0.2h-0.2l-0.4-0.3l-0.6-0.8v-0.2l0.1-0.3v-0.2l-1.7-0.9l-0.1,0.1l-0.3-0.1l-1,0.1l-1.1-1l-0.4-1l-0.3-0.7l-0.3-0.6
		l-0.2-0.3l-0.2-0.2l-0.1-0.2l0.1-0.2l-0.2-0.2l-0.2-0.4l-0.2-0.1l-0.2,0.2l-2.6-1.1l-0.1-0.2l-0.4-0.1l-0.7-0.2l-0.1-0.1l-0.3-0.2
		l-0.3-0.1l-0.1-0.1l-0.4-0.1l-0.7,0.1l-0.5,0.2l-0.4,0.2l-0.4,0.3l-0.2,0.3l-0.1,0.3v0.3v1.7v0.8l-0.1,0.1l-0.5,0.1l-0.6-0.2
		l-0.6-0.5l-0.8-0.8l-0.5-0.6h1h-0.1l-0.2-0.2l-1.2-1.5l-0.2-0.2l-0.2-0.2l-0.3-0.4l-0.2-0.2l-0.1-0.1l-0.1-0.1l-0.1-0.1l-0.1-0.1
		l-0.1-0.1l-0.1-0.1l-0.1-0.1l-0.2-0.2l-0.2-0.2l-0.1-0.2l-0.1-0.1l-0.8-0.7l-0.6-0.6l-0.1-0.1l-0.1-0.2l-0.1-0.3l-0.3,0.1l-0.7-1.8
		l0.3-0.1l-0.2-0.2l-0.2-0.4l-0.1-0.2l-0.2-0.5V238l-0.1-0.4v-0.3V237v-0.2l-0.1-0.3l0.3-0.1l0.1-0.3l-0.1-1v-0.2l-0.1-0.5v-0.2
		v-0.4l-0.1-0.5l-0.1-2.6l-0.1-0.8l-0.2-0.7l-0.5-0.8l-0.6-0.7l-0.5-0.4l-0.5-0.4l-0.7-0.3l-0.2-0.1h-0.2H101v-0.2l-2-0.1l-0.3,0.2
		l0.1,0.5l-0.8,0.4l0.1,1.2l0.1,0.8l-0.2,0.5l-0.8,0.9l-0.8,1.1v1.5l-0.2,1.2H96l-0.1,0.7h-0.1v0.9h0.3l0.1,0.3l-0.1,0.5h-0.2
		l-0.2,0.6l-0.1,0.1l-0.2,0.9l0.1,0.2l-0.1,0.8l0.1,0.2l0.1,0.3l0.3,0.5l0.3,0.7l0.1,0.1l0.1,0.4v0.6l-0.2,0.3l-0.4,0.2H95l-0.6-0.1
		l-1.1-0.2l-0.2-0.2H92l-1,0.2l-0.5,0.3l-0.4,0.4l-0.1,0.6l0.2,0.1l-0.3,0.4l0.1,0.1v1l0.1,1.5l0.1,0.7l-0.3,0.5l-0.3,0.2l-0.3-0.2
		l-0.5-0.3L88,247l-0.7-1l-0.7-1.6l-0.1-1l0.1-1.7l0.2-0.4l0.3-0.6l0.5-0.8l-0.1-0.9l-0.8-1l-0.5-1l-0.3-0.5l-0.3-0.4V235l-0.4-1.5
		l-0.5-0.6l-1-0.8l-1.4-0.5l-0.5-0.5l-0.3-0.4l-0.1-0.2l-0.5-0.5l-2.1-1.6l-0.2-0.6l0.6-1.7H80l0.2-0.5l0.3-0.4l0.2-0.7l0.2-0.9
		l0.1-0.4h-0.2l-0.1-0.5l0.1-0.5l-0.1-0.3l-0.2-0.5L80,221l-0.5-0.7l-0.2-1l-0.1-0.2l-0.1-0.1v-0.2l-0.3-0.2v-0.2l-0.1-0.3l-0.1-0.3
		l-0.4-0.5l-0.1-0.1l-1-1.2l-0.1-0.1l-0.2-0.1h-0.4H76h-0.5l-0.3,0.1L75,216l-0.2,0.1l-0.1,0.1l-0.2,0.2l-0.1,0.2l0.1,0.2v0.6v1.1
		l-0.4,1.5l-0.1,0.5l0.1,0.8l0.2,0.3v0.5l-0.2,0.2l-0.1,0.8l-0.4,0.8l-0.8,0.8l-1,0.5h-0.1h-0.6l-0.6-0.1l-1.2-0.1h-0.2h-0.3
		l-0.7,0.2l-1.5,0.4l-0.5,0.5l-0.1,0.2l-0.1,0.3l-0.4-0.1l-0.2,0.7l0.2,0.1l-0.1,0.7l0.2,0.5l0.2,0.6l-0.5,0.1l0.1,0.5l0.2,0.5
		l0.4,0.1l0.2-0.1l0.4,0.5l0.6,0.8l0.1,0.1l0.5,0.4l1.5,0.1h1.1l0.9,0.2l0.7,0.6l1.9,2l0.8,0.7l0.4,0.4v0.4l-0.2,0.5l-0.5,0.2
		l-0.5,0.1l-1.5,0.1l-1.3,0.2l-2-0.1l-2,0.7l-3.1,0.8l-1.7,0.2l-1.2-0.2l-0.8-0.5l-0.2-0.9l0.2-0.8l0.6-1.5l0.2-1.2l0.2-0.8l0.2-1
		l-0.2-1.5l-0.4-1.3l1-5.3l0.1-0.6l0.8-1.5l1.2-1.7l0.7-1.4l-0.2-0.6l-0.2,0.2l-0.2-0.3l0.5-0.4l-0.1-0.7l-0.2-1l-0.2-0.2v-0.2
		l-0.7-3.7l-0.3-1.5l0.6-0.4l0.5-1l0.2-0.6l-0.3-1l-0.5-0.4l-0.1-0.1l-0.5-0.4l-0.1,0.2l-1.6-1.5l-0.1-0.1l-0.5,0.5l-1.4-1.3
		l0.1-0.1l-0.2-0.1h-0.1l-0.1-0.1l-0.2,0.7l0.2,0.5l-0.1,0.5l0.2,0.4v1l-0.1,1.6l-0.3,0.7l-0.6,0.2l-0.7-0.1l-0.7-0.5l-1-0.5
		l-0.3-0.9l-0.3-0.7l0.3-0.6l-0.2-0.4l-0.2-0.1l-0.3-0.3l-0.2,0.1l-0.4-0.1H54h-0.4h-0.4H53l-0.3,0.1l-0.3-0.1l-0.4,0.1l-0.1,0.2
		l-0.2,0.3l-0.3,0.4l-0.9,1l-0.2,0.3l-0.2,0.9l-0.1,1.6l-0.1,0.6v0.5l0.5,1l0.1,0.9l-0.1,1.1v0.5l0.3,1v0.6l-0.2,0.3l-0.4-0.1
		l-0.6-0.6l-0.3-0.2h-0.5h-0.1l-1.5-0.6l-1.1-0.8l-0.8-1l-0.4-0.7l0.1-0.9l0.7-0.7l0.8-1l0.5-1.1l0.9-0.7l0.1-0.3l0.6-1.8l0.1-1.3
		l0.1-0.7l-0.3-0.2H48v-1l0.7,0.2v-0.8l-0.3-0.9l-0.5-0.8l-0.5-1.3l-0.1-1.3l0.3-1l1-1.4l0.1-0.1v-4l-0.7,0.8l-0.5,0.9l-0.4,0.4
		l-0.7,0.4l-1.2,0.6l-0.5,0.5l-0.6,0.8l-0.4,0.7l-0.4,0.7v0.4l0.1,2.6v0.2v0.1v0.2v0.2v0.5v0.2v0.2l-0.1,0.2l-0.1,0.2l-0.1,0.2
		L43,203l-0.1,0.2l-1,1.9l-0.5,1.3l-0.4,0.3v0.1l-1.7,1.2h-0.1h-0.1H39h0h-0.1l-0.1,0.1l-0.1,0.1l-0.1,0.1l-0.3,0.3l-0.1,0.1
		l-0.1,0.1l-0.1,0.1l-0.1,0.2l-0.1,0.2v0.2v0.2v0.2l0.1,0.2l0.4,1.2l0.5,1l0.4,1v0.1l0.5,1l0.9,1.2l0.6,0.9l0.4,1.3l0.6,0.9l1.4,1.6
		l1,1.1l0.2,0.2l0.1,0.1l0.1,0.1l0.1,0.1l0.1,0.2l0.1,0.2l0.1,0.2l0.1,0.2v0.2v0.2v0.2v0.2v0.2l-0.1,0.1l-0.1,0.1l-0.1,0.1l-0.1,0.1
		l-0.1,0.1l-0.2,0.1l-0.1,0.1l-0.2,0.1l-0.1,0.1l-0.2,0.1H44h-0.1h-0.2h-0.1h-0.1v0.2l-1-0.6l-1.2-0.7H41l0,0l-0.2-0.1h-0.1h-0.1
		h-0.2h-0.1l-0.2-0.1l-1.5-0.6l-1.5-0.7l-0.3-0.3l-0.1-0.1l-0.1-0.1l-0.1-0.1l-0.1-0.1l-0.1-0.1h-0.1h-0.1H36l-0.1,0.1h-0.1h-0.1
		h-0.1h-0.1h-0.1l-0.1-0.1l-0.1-0.1l-0.1-0.1L35,221v-0.2V220v-0.2v-0.1l-0.1-0.1l-0.1-0.1l-0.4-0.1L34,219l0,0l-0.1-0.1l-0.2-0.2
		l-0.1-0.1l-0.1-0.1l-0.1-0.1h-0.1l-0.3-0.1l0.1-0.2l0.1-0.3l-0.5-0.7l-0.1-0.2l-0.4-0.2l-0.4-0.1l-0.6,0.2l-0.4,0.2l0.1,0.3
		l0.2,0.4l0.1,0.1l-0.1,0.1l-0.6,0.9l-0.6,0.9l-0.2,0.2l-0.1,0.1h-0.1l-0.2,0.1l-0.3,0.2l-0.2,0.1l-0.3,0.1h-0.1h-0.1h-0.1h-0.1H28
		h-0.1H28h-0.1h-0.1h-0.2h-0.1h-0.2l-0.1-0.1l-0.2-0.1l-0.1-0.2l-0.1-0.2l-0.1-0.2l-0.1-0.2l-0.1-0.2l-0.1-0.2l-0.1-0.1l-0.1-0.1
		l-0.1-0.1l-0.1-0.1l-0.2-0.1l-0.2-0.1l-0.2-0.1l-0.2-0.1l-0.1-0.1l-0.1-0.1l-0.2-0.3l-0.1-0.1l-0.1-0.2l-0.1-0.2l-0.2-0.2l-0.3-0.3
		l-0.1-0.1l-0.1-0.1l-0.1-0.1l-0.2-0.3l-0.1-0.2l-0.1-0.2l-0.1-0.2l-0.4-0.6l-0.2-0.5l-0.1-0.2l-0.1-0.3l-0.3-1.1l-7-5.1l-0.5,0.1
		l-1,0.3l-0.8-0.1l-0.2-0.1l-0.2-0.1l-0.2-0.1l-0.4-0.2l-0.2-0.2v-0.2v-0.1l-0.9-0.5l-0.1,0.1c-0.8,7.7-1.3,15.6-1.3,23.5
		c0,3.5,0.1,7,0.3,10.5l0,0l0.6,1.1l-0.1,0.1l-0.1-0.2l-0.2,0.1l-0.1,0.1c0.2,4.5,0.6,8.9,1.1,13.3l0.8-0.5l0.2-0.1l2.9-1.6l1.6-0.7
		l0.1-0.1l0.3-0.3l1.3-1.1l0.3-0.6l0.6-0.9l-0.1-0.2l0.8-1l0.1-0.7l0.8-1.1l0.8-1.1l0.5-0.2l0.1-0.5l1.7-2.2l0.2,0.1l1-1.8l0.2,0.1
		l1.1-2l0.8-0.2l0.6-0.1l0.1,0.2l0.5-0.1v-0.2l0.6,0.1l0.1,0.2l0.3,0.1l0.2-0.1v-0.2h0.4l1.6-0.3l0.9-0.3l0.9-0.3l1.1-0.5l1.2-0.7
		l0.8-0.6l-0.1-0.3l0.8-0.6l0.3-0.1l0.3-0.5l0.4-0.2l0.2-0.6l0.3-0.6l0.8-0.5h0.3l0.8,0.7l0.2,0.2l-0.3,0.2l0.2,0.2l0.2-0.1l0.1,0.2
		h0.1l0.9,0.6l0.3-0.2l0.6,0.4l0.6,0.3l0.3,0.4l-0.1,0.3l-1,0.4l-2.5,0.3l-1.3,0.8l-0.6,0.8l0.1,0.2l-0.5,0.3l0.1,0.2l-0.5,0.3
		l-0.1-0.1l0.1-0.1v-0.1l-0.3,0.2l-0.5,0.2l-1.9,0.2l-1.4,0.6l-1.7,0.4l-0.2,0.2l-0.8,0.7l0.1,1.5l0.3,0.8v0.1l0.4,0.6l0.8,0.8
		l2.4-0.2l0.9,0.3l0.7,0.3l0.4,0.3l0.1-0.1l1,0.9l1,1l0.4,0.5l0.8,0.8h0.2v0.1l0.2,0.1l0.1-0.2l1,0.1l0.2,0.2l0.1-0.1l1.4,1
		l-0.1,0.2l0.8,0.3l0.2-0.2l0.9,0.5l0.5,0.4l1.5,1l1.7,0.1l0.6-0.3l0.5-0.2l0.2-0.1l3.1,0.3l0.5-0.2l0.7,0.1l-0.3,0.8l-0.1,0.8
		l-2.7,2.7l-1.8,0.6l-1.4,0.5h-0.2L47,257l-1.8-0.1l-2.6-0.7l-0.1,1.4l-0.2,0.2l-0.5-0.2l-1.2-1.2l-1.2-0.7l-2.3,1.3l-0.1,0.1
		l-0.2,0.2l-0.1,0.1l-0.2,0.2h-0.1l-0.1,0.6l0.2,0.4h0.2l0.1,0.2l0.2-0.1l0.2,0.2l0.4-0.4l3.1,2.7l-0.3,0.3l0.3,0.7l0.1,0.1h0.1H41
		l0.3,0.1l-0.1,0.1l0.2,0.3l0.3-0.2l0.2,0.1l0.1-0.1l0.4,0.2l0.1-0.1l0.3,0.1l0.1,0.2l0.8,0.3l0.3,0.3l0.8,0.9l0.4-0.3H45l0.9,0.9
		L46,265l-0.7,0.7l0.9,0.9l-0.2,0.3l0.6,0.5l0.1-0.1l1,1l0.3,0.5l0.1,0.1h0.2h0.1l0.2,0.1h0.3H49v-0.1h0.4l1.1-0.6l1.4-1.6l1.3-1
		l0.1,0.1l0.9-0.6l0.8-0.4l2.1-1.3l-0.1-0.1l0.1-0.1l0.3-0.2l1.9-1.4l0.6-0.4l0.7-0.4v-0.1l0.1-0.1h0.2l0.1,0.1l0.5-0.3l0.4,0.1
		l0.3,0.2l0.4,0.2l-0.1,0.1l0.2,0.3l0.2-0.1l0.8,1.2l0.6,0.9l0.1,0.4l0.3,0.4l0.3,0.5l0.4,0.7l0.4,0.6l0.1-0.1l0.6,0.7l0.6,0.4
		l0.3,0.2l0.4,0.9l0.7,1.5l0.1,0.2l0.7,2.2l1,3.2l0.4,1.9v1.2l-0.2,0.7h-0.2l-0.3,0.6l0.1,0.1l-0.1,0.1l-0.1,0.1l-0.3,0.1l-0.3,0.1
		H69l-0.7-0.5l-0.7-0.5l-1.5-0.8l-0.2-0.2h-0.2l-1-0.1h-0.4l-0.6,0.2l-2.2,0.5l-0.6,0.1l-0.5,0.1l-0.8-0.2h-0.8l-0.6-0.1l-0.4-0.1
		h-0.3l-0.2-0.2l-0.9-1l-0.1-0.2l-0.4-0.8l-1.3-0.5l-0.7-0.3l-1.4,1.7l-0.2,1v0.9l0.1,0.7l0.2,0.6h1.1h1.1h0.7l0.3,0.1l0.2,0.2
		l0.3,0.2l0.6,0.2l0.3,0.1h0.3l0.5,0.1l0-0.3l0.3,0.1v0.2l-0.1,0.2l-0.4-0.1h-0.4l-0.6-0.2h-0.3l-0.4,0.2l-0.3,0.5l-1,1.3v0.2H55
		v0.2l0.1,0.1h-0.3l-6.1,0.2l-3.5,0.1l-2.3,0.1l-0.5,0.2l-3.1,1.7l-2.8,1.6l-3.7,2L32,290l-3.4,1.9l-0.3,0.3l-0.3,0.3l-2.3,3.2v-0.1
		l-0.7,0.5l-3.1,4.9l0.4,0.8l8.6-4.9l0.3,0.5l10.7-6l0.2-0.1h0.2l0.2,0.1h0.2H43v-0.1l-0.2-0.1l0.1-0.3l2.1,0.9l-1.4,4.4L40,305
		l-0.3-0.1l0.1-0.3h-0.3l-0.2,0.3l-1,1l0.5,0.2l0.1,0.1v0.2l0.6,0.2l-0.2,0.5l-2-0.5v0.5l-0.1,0.6l1.2,0.4l-0.2,0.6l-3.1-0.9
		l-0.1,0.3l-0.4,1.2v0.1l-0.2-0.1l-0.2,0.6l-0.5-0.2l-0.1-0.3H33l-0.1,0.5l-3.1,0.9l0.1,0.3l-3.1,1l-1.5-0.7l-0.1,0.1
		c0.9,2.2,1.8,4.3,2.7,6.5l0.9,0.3l0.5,0.4l0.4,0.8l0.7,0.7l0.8,0.3l-0.1,0.6l0.9,0.3l0.3-1l0.2,0.4l0.3-0.1l-0.2-0.4l0.7-0.4h0.2
		l2.7-3.1l0.3-0.5l1-0.3l0.6,0.8v0.6l0.7,1.2l0.8,1.7l0.8,1.2l0.5,0.8l0.8,0.9l0.5,0.1L44,324l0.6,0.1l1.5,0.5l1,0.3l0.1,0.2
		l-0.1,0.6l0.7,0.5l0.2,0.3l0.9,3.8l0.6,0.7v-16l-1.2-0.7l-3-2.6l-0.4-1.8v-1l-3.6-1.4l0.2-0.5l0.6,0.1l0.1-0.1h0.1l0.5,0.1l1.4,0.6
		l0.5,0.2l0.1-0.1l-0.3-0.3l1-1l0.1-0.1l2.6-2.7l1-1.1l0.1-1.1l-0.2-0.3l0.5-0.6l0.8-0.9l0.3,0.4l2.2-2l2.5,0.8l1.3-0.5l1.3-0.8
		l-0.4-0.9l-0.3,0.1l-0.9-0.1l-0.6-1.7l-0.5-0.3l-0.2-0.7l-0.5-1.4l0.2-0.2l2.1-1.1l0.6,0.2l0.9-1l5.1-3.1l0.2-0.1l0.5,0.1l0.2,0.3
		v0.3v0.3l-2.3,3.9l-0.2,0.8l0.6,1.2l0.4-0.3l4.2-6.1l2.3,0.4l-5.2,8.6v0.2l0.7,0.6l0.8-0.4L71,291l1,0.6l0.2,0.1l0.1,0.1l1.2,0.7
		l-0.4,1.2l-3.5,10.2l0.2,0.2l-0.2,0.5l2.9,1l0.2-0.7h0.1l0.2-0.5h-1l0.6-1.8l-0.8-0.2l-0.7-0.2l0.2-0.7l1.3,0.5l0.5-1.4v-0.1
		l0.8-2.3l-0.7-0.2l0.2-0.7l3,1l-0.3,1h0.1l-0.9,3.4h-0.1l-0.1,0.5l-0.9,3.1h0.1v1.4h1v-0.3H76h0.2v0.3H77l0.2,1.3l-0.4,0.5v0.9
		l0.6,0.7l-0.1,0.9v0.1v0.4v0.7v0.7v1l0.2,0.2l-0.1,0.2l1.2,0.9l-0.1,0.2l-1.2-0.9l-0.1,0.2v0.7l1,0.7l-0.2,0.2l0.1,0.1l-0.2,3.1
		l0.1,0.1l0.4-0.2l1,1.6l-0.4,0.2l1.3,2.4h1.2l2.2-0.9l0.6-3.1h0.2l1-5.2l0.3,0.1V315l0.1-0.8l-0.1-0.2l-0.1-0.2l-0.2-0.1l-0.6-0.2
		l-0.3-0.1l-0.6-0.2l-0.3-0.1l-0.7-0.2l-0.4-0.1h-0.1l-0.1-0.3l-0.5-0.2l0.3-0.8l0.4,0.2l0.8-1.8l-0.1-0.6l-0.1-1.3l-0.1-0.9
		l-0.1-1.2l-0.1-0.9l-0.2-1.4v-0.4V303v-0.4v-0.1v-0.3v-0.4l-0.1-0.7l-0.1-0.8v-0.4v-0.2l-0.1-0.6v-0.2v0.1l-0.3-2l-0.2-2.4
		l-0.3-3.3l-0.2-1.8l-0.1-0.5l-0.4-0.2l-0.6-5.9l-0.3-3l0.4-0.1l0.1-0.4V279l0.3-0.3l0.3-0.2l1-0.2l0.1-0.3l-0.2-1.4l0.1-0.5
		l-0.3-0.5l-0.4-0.2l-0.3-0.4l-1.2-0.5l-0.4-0.9l-0.1-0.6l-0.1-0.3v-0.6V272l-0.1-0.4l0.1-0.4l0.1-0.2l0.2-0.3l0.3-0.2l0.4-0.1
		l0.1-0.4v-0.6l-0.1-0.4l-0.1-0.3l-0.1-0.1l-0.2-2V266l0.5-0.8l0.3-0.3l0.7-0.4l2-0.4h0.5l0.3,0.3l0.1,0.4l0.3,0.4l0.3,0.1l-0.1-1.4
		l1.8-0.1v0.4h-0.2l0.1,0.4v0.1l0.1,0.1l0.2,2v0.6l0.3,0.2l1,0.7l0.8,0.5l0.3-0.4l0.3-0.5l-1.3-3.8l1.1-0.4l1.8,5.1l1.2-0.1l0.8-0.1
		l-2.1-6.1v-0.1l0.1-0.1l1-0.3l0.2-0.1l0.1,0.2l0.6,1.7l1.1,3.3l0.6,0.8l0.3-0.2l1-0.9v-0.5l-1.8-5.7l1-0.4l1.9,5l0.3,0.5l1.3-1.2
		l-1.8-5.2l1.2-0.5l1.9,5.5l0.8-0.8l1-5.7l1.8,0.3h0.1h0.1l0.2,0.3l0.5,0.4l0.6,0.3h0.2l0.3,0.1l0.3,0.2l0.4,0.4l0.3,0.5l0.2,0.4
		l0.9,1.5v0.3h0.1h0.1l0.1,0.2l0.9,1.5l0.2,0.4l0.1,0.2v0.1v0.2l-0.1,0.3l-0.2,0.3l-0.3,0.2l-0.4,0.2l-0.4,0.1v0.3H107h-1.8
		l-0.4,0.5l0.2,0.5h-0.1l0.1,0.3l0.1,0.3v0.1v0.1v0.2l0.2,0.3l0.8,1h0.6h0.6h0.6l-0.1,1l0.6,0.2l-0.3,1.8l-0.8,5h-0.5l-0.4,0.7
		l-0.1,1.1l-0.4,2.2l-0.1,0.7l0.1,0.6l0.2,0.2l0.3,0.1l0.4-2.5l0.3,0.1h0.2l-0.3,2l0.7,0.1l0.3-2.4h0.3h0.3l-0.3,2.4l0.9,0.1
		l0.3-2.5h0.2h0.3l-0.3,2.5l0.9,0.1l0.3-2.4h0.3h0.4l-0.3,2.5l1,0.2l0.1-1l0.1-1.4h0.2h0.3l-0.1,2.5l0.6-0.1l0.5-0.3l0.3-0.4
		l0.1-0.6l0.4-3.3l-0.2-1v-0.5l0.1-0.6l0.1-0.3l0.1-0.3l0.1-0.3l0.1-0.2H115l0.1-0.1l0.2-0.3l0.3-0.3l0.3-0.2l0.3-0.2l0.4-0.2
		l0.3-0.3l0.3-0.3l0.3-0.3l0.2-0.3l0.2-0.4l0.2-0.3l0.1-0.3l0.1-0.3l0.1-0.4l0.1-0.3l0.1-0.6l0.1-0.3v-0.2v-0.1h0.1h0.1h0.1h0.1h0.1
		l0.5-1.8l0.5-2.2V266v-0.1h0.1h0.1h0.1l0.1,0.1h0.1l0.1-0.1l0.3-0.1l0.4-0.1h0.2h0.2h0.2h0.3l0.3,0.1l0.3,0.1l0.2,0.1l0.2,0.1
		l0.2,0.1l0.1,0.2l0.1,0.2l0.1,0.2l0.1,0.6h0.1l-0.2,1l-0.4,0.5l-0.1,0.4l-0.6,2.4h0.1l0.1,0.7v0.3l0.1,0.4l0.1,0.2l0.1,0.1l0.1,0.3
		l0.6,0.8l1.1,1l0.9,0.7l1.3,1.9l0.3,0.8l0.1,0.9v0.9v1l-0.3,1.2l-0.1,0.6l0.3,0.9l-0.3,1.2v0.6v0.6l0.4,1l0.8,1.2l0.6,0.7l1,0.6
		l1.6,0.4l1.1-0.1l1-0.4l1.4-1l0.9-1l0.3-0.5l0.3-0.7l0.4-0.7l0.7-1.7l0.7-1.6l0.5-1.3l0.5-2l0.3-0.9l0.8-1.6l0.4-0.5l0.3-0.3
		l0.4-0.2l0.5-0.1l0.9,0.1l0.6,0.3l0.3,0.4l0.3,0.8l0.2,0.8l-0.1,0.2l-0.3,0.3l-0.1,0.4v0.3l0.1,0.4v0.7l0.1,1.2l0.1,1l0.4,3.6v0.4
		l-0.2,0.7l-0.5,0.8l-1,1.4l0.1,0.2l-0.2,0.2l-0.6,0.7l-0.8,0.9L140,292l-0.3-0.3l-0.1,0.1l-0.1,0.4l-0.4,0.3l-0.3,0.5l-0.4,1
		l-0.6,0.9l-0.8,0.8l-0.2,0.3l-0.6,1l-0.2,0.3l0.2,0.1l0.1,0.1l-0.6,0.8l-0.3,0.4l-0.3,0.2l-0.4,0.5l0.1,0.1l-0.2,0.3l0.4,0.2
		l-0.3,0.9l0.5,0.2l-0.4,1.3l-1,3.8l0.5,0.1l0.1,0.1l-0.1,0.2l-0.1,0.1H134l-0.1,0.3v0.3l0.1,0.5l0.3,0.5l0.4,0.3l0.7-1.4l-0.2-0.1
		V307l0.1-0.2h0.1l0.5,0.2l0.6-1.2l1.1-2.3l1-1.9l1.6-3.2l-0.2-0.1l0.1-0.2l0.5,0.2l-0.1,0.2l1.1,0.6h0.1v0.1l0.2,0.1l-5.2,11.2
		l1.8,0.2l0.3-0.7l0.6-0.5l0.4,0.2l4.7-8.3l3.8-9.9l1.8-4.8l0.3-0.2h0.4l0.3,0.2l1.2,4.6l0.8-0.2l0.1,0.5l1.2-0.3v-0.5l1.6-0.3
		l-1.8-5.4l1.9-8.4l3.1-3.3l0.6,0.4l0.6-0.2l1.5,0.2l0.6,0.4l0.3,0.2l2.5,3v0.1v0.1l0.1,0.1l-0.1,0.2l-0.1,0.1H165l0,0h-0.1h-0.1
		h-0.1h-0.1l-0.2,0.1h-0.1l-4.6,5.2l-0.4,1.9l-0.3,2.5l-0.9,6.6l1.3,7.5l-0.1,0.9l-0.3,0.8l-0.6,0.9l-0.6,0.4l-1.5,1l-0.6,1.3
		l-0.2,1.4l0.2,1.3l0.4,0.9l1.2,1.1l0.8,0.7l0.1,0.1l0.5,0.4l0.5,0.5l0.2,0.2l0.2,0.1l0.1,0.1l0.3,0.2l0.3,0.2l0.2,0.1h0.3h0.2h0.2
		h0.2l0.3-0.1l0.2-0.1l0.2-0.2l0.1-0.3l0.1-0.2h0.2l0.7,0.1l0.3,0.1l0.3,0.1l0.3,0.2l0.2,0.2l0.1,0.3l0.1,0.2l0.1,0.2v0.3l0.2,0.3
		l0.2,0.1l0.2,0.3l0.2,0.5l0.5,0.4l0.2,0.1l0.7,0.4l0.2,0.2l0.1,0.3l0.4,0.1l0.3,0.4v0.4l-0.1,0.3l-0.9,2l-0.3,0.7l-0.4,0.6
		l-0.7,0.4l-0.6,0.4l-0.6,0.4l-0.9,0.6l-0.4,0.3l0.2,0.6l0.2,0.6l0.2,0.6l0.4,0.7l0.2,0.3l0.2,0.2l0.1,0.2v0.2v0.2v0.2l-0.1,0.3
		l-0.1,0.2h0.1l0.1,0.1h0.1l0.1-0.1l0.1-0.1h0.1h0.1l0.2,0.1l0.5,0.5l0.2,0.2l0.3,0.2l0.3,0.2l0.4,0.2l0.3,0.2l0.5,0.2l0.6,0.2
		l0.5,0.1l0.3,0.1h0.2h0.3h0.3l0.5-0.1l0.3-0.1l0.3-0.1l0.3-0.2l0.4-0.3l0.6-0.5l0.8-0.9l-0.3-0.3v-0.1l0.5-0.5l-0.3-0.3l0.5-0.6
		l1,0.8l0.3-0.4l-0.6-0.6l0.4-0.6l0.3,0.2l0.2-0.3l-0.5-0.4l0.6-0.8l0.5,0.4l0.1-0.1l0.3,0.2l0.2-0.2v-0.5l0.1-0.1l-0.4-0.2
		l-0.1,0.1L175,323l0.8-1.3l0.4,0.3l0.4-0.7l0.1-0.1l0.2-0.3l0.2-0.8l0.1-0.2l0.3-1.1l0.2-1.2l0.1-0.4l0.1-1l0.1-0.7v-1l-0.1-1
		l-0.2-1.8l-0.7-5.9l0.3-0.2l1.3-0.8l0.9-0.5l1.9-0.6l1.1-0.1l-0.1-0.6l0.5-0.1v0.2l1-0.1l1.5-0.1l0.1,0.4l1-0.2l-0.1-0.6l1.4-0.5
		l0.2-0.1l0.4-0.3h0.5l0.9-0.4l1.6-0.7l0.9,0.5l0.1,0.1l0.6,1l0.2,0.5l-0.1,0.7l0.1,1.3l-0.2,0.2l0.3,0.5l0.6,0.1l0.2,0.2l-0.2,0.3
		l0.6,0.8l0.2-0.1l0.2,0.2l-0.2,0.1l0.9,0.6l0.3,0.2l0.4-0.1l0.4,0.5v0.4l-0.4,1.9l0.2,0.1l-0.1,0.4l-0.2,0.1l-0.7,2.5l-1.3,3.7
		l-0.3,1.6l0.2,1.1l-0.1,0.9l0.1,0.7l1.1,1.4l1.5,1.1l0.6,0.2l0.1-0.4h0.1l0.1-0.2l0.2,0.1l-0.1,0.2h0.1l-0.1,0.4l0.4,0.1l0.4-1.5
		h0.1h0.1l-0.3,1l0.4,0.1l-0.3,1.1l0.2,0.1l1.1,0.4l1.4,0.1h1.5h1l0.7-0.1l0.7-0.2l0.7-0.2l0.7-0.3h0.1l0.8-0.2l1-0.2l-0.9-3.3
		l0.8-1.3l1-0.1l1.2-0.2l0.2-0.1l2.5-1.1l0.1-0.1l0.1-0.1l2-1.2l1-1.1l1.1-1.2l0.7-0.9l0.9-1l0.2-1.3l0.1-1.2l-0.2-1.6l-0.4-1.9
		l-0.4-0.2h-1l-0.6-0.2l-0.6-0.4l-0.3-0.6l0.2-0.5l0.2-1.1l0.1-0.9l-0.1-0.7l-0.7-0.4l-0.6-1l-0.1-0.2l0.1-0.5l0.2-0.4l0.5-0.4
		l0.5-1l0.1-0.4l-0.2-0.5V297l0.2-0.6l-0.1-0.1l0.3-0.5l0.3-0.4l1.2-1.4l0.3-0.2l1.1-0.6l0.5-0.1l0.6-0.1h0.3h0.2l0.5-0.1l0.1-0.2
		l0.3-0.1h0.1l0.1-0.2l0.5-0.1l0.4-0.2h1.1l0.3-0.1l1.3-0.3l0.9,0.6l0.3,1.2l-0.5,0.1l0.1,0.3l-0.1,0.7l0.2,0.3l1,0.7l2,0.4l1.1-0.1
		v-0.3l0.1-0.3l0.2-0.2l0.2,0.1l0.3-0.2l0.1,0.1l0.2-0.1l-0.2-0.3l0.3-0.4l0.2-0.2l0.5-0.2l-0.1-0.1l0.3-0.2l0.4,0.3l0.9-0.7
		l0.7-0.5l-0.3-0.1l0.1-0.2l1.2-1h0.3l1.7,2.3l-0.5,1.3l-0.6,0.2v0.6l-0.6,0.7l-0.5,0.3l-0.7,0.5l-1,0.9l-0.2,1.4l0.2,0.2l-0.1,0.4
		l-0.2,0.1l-0.1,1l-0.8,0.6l-0.6,0.5l-0.8,0.7l0.3,0.4l-0.4,0.6l-0.4-0.3l-0.4,0.4l0.1,0.3l-0.2,0.5l-0.5,0.8l-0.6,0.4l-0.5,1.1
		l-0.2,0.5l-0.4,0.2l-0.1,0.2v0.1v0.4v0.3v0.3l0.1,0.6l0.1,0.8l0.6,1.1l0.3,0.3l0.1,0.8l1,1.9l0.8,0.7l0.7,0.5l0.4,0.1l0.3-0.7
		l0.7,0.4l-0.3,0.6l0.1,0.3l4.1,2.3l2.6,0.9l2.7,0.8l0.6-0.1l0.2,0.3l3,0.5l4.7,0.3l1.1-0.2l0.1-0.1l0.2-0.1l0.3-0.1l0.2-0.2
		l0.2-0.2l0.1-0.2v-0.3l-0.3-1.9l0.1-0.4l-0.2-0.1l-0.3-0.1l0.2-0.6h-0.1l0.1-0.7l0.3,0.1l0.4-0.5l0.5-0.4l0.5-0.3l1-0.5l0.7-0.3
		l0.4-0.2l0.1,0.1l2.7-1.2h0.6h0.1l0.4,0.1l0.5,0.2l0.4,0.2l0.3,0.1l0.2,0.3l0.8,1l1.8,1.3l0.8-0.2l1.6-1l1.1-1l1.8-1.9l0.6-0.9
		l0.7-0.6l0.8-1.3l1.8-2.6l0.5-0.3l0.4-0.6l0.6-1.9l0.5-1l0.4-0.5l0.9-2.8l-0.1-0.8l-1.1-1.7l-1.3-2l-0.3-2.2l-0.1-1.3l-0.9,0.1
		l-0.8-1.6l-1-1l-0.2-0.1l-0.5-0.9l-0.1-1.9l1.1-2l0.1-1.1l0.1-1l-0.6-1.3l-0.7-1.3l-0.2-0.8l-0.8-0.6v-0.9l0.3-0.2v-0.1l0.2-0.5
		l0.1-0.1h0.1l-0.2,0.6h0.1l0.2-0.4l0.1-0.2l0.5,0.1l0.3-0.1l0.6-0.5l0.5-1.4L272,274l-0.3-0.5l-0.5-0.7l-1.9-2.2l-1-0.2l-0.4-0.7
		l-0.4-0.6l-0.2-0.9l-0.8-0.7l-0.7,0.1l-0.8-2.3l0.2-0.4l-0.2-0.2l-0.6,0.1l-0.4-0.5l-1-0.3l-0.4-0.8l-1.2-1l-0.2-0.5v-0.2l-0.5-0.4
		l0.2-0.3l-0.4-1l-0.2-0.1v-0.2l-0.1-0.2l0.1-0.3l-0.8-1.9l-0.1-0.4v-0.3h-0.1l-0.1-0.4l0.1-0.2l-0.1-0.7l0.1-0.3l0.4-0.2l-0.5-1
		V253l-0.4-0.3l0.2-0.2l-0.1-0.2l-0.2,0.1h-0.5l-0.1-0.4l-0.4-0.2l0.4-2.3l-0.2-0.4l0.2-0.6l0.2-0.6l0.2-0.1l0.3-0.2l0.9,0.1
		l0.1-0.2l0.2,0.3l0.6,0.9l3.9-1.2l3-2.1l0.4-0.9l-0.4-0.6v-0.7l0.1-0.6l0.2-0.3l1-0.5l0.5-0.2l0.5-0.4l1-0.9l1.3-1l1-1l0.9-0.7
		l0.1,0.9l-0.3,1.3l-0.6,3.2l0.5,0.6l-0.1,0.2l0.6,1L274,245l1,1.1l-0.3,0.4l0.5,0.5l1,1.2l0.1-0.1l0.7,0.9l-0.2,0.2l0.4,0.8
		l0.6,0.7l-0.2,0.2l1,1.5l0.6,0.8l0.9,0.8l0.8,0.3v0.1l0.4,0.2l0.3,0.3l0.2,0.1l-0.2,0.5l0.3,0.3l0.1,0.1l0.2,0.2l0.2,0.4l0.2,0.4
		l0.2,0.2h0.2l0.1-0.1l0.1-0.1l0.2-0.2l0.1-0.1l0.4-0.4l0.6-0.8l0.1-0.3l0.1-0.3v-0.4l-0.1-0.4l-0.1-0.3l-0.1-0.2l-0.3-0.3l-0.3-0.3
		l-0.2-0.3l-0.1-0.3l0.1-0.5l-0.2-0.1l0.1-0.5h0.2l0.4-1l-0.2-0.1l0.2-0.4l0.1,0.1l0.1-0.5l-0.1-0.4v-1.2v-1.3l0.1-0.6l-0.4-0.6
		l0.6-1l0.2-0.2l-0.2-0.4l0.9-0.5l1-0.3l0.5-0.9l0.4-0.6l0.2-0.5l0.3-0.1l0.3,0.5l0.4,0.2l0.1,0.2l-0.3,0.3l0.3,0.5l-0.1,0.3
		l0.5,0.7l0.2-0.5l0.3,0.1l-0.1,0.4l0.1,0.1l-0.1,0.3l0.2,0.8l0.2,0.5l0.3,0.4l0.8,0.5l0.6,0.3l0.5,0.8l0.5,0.5l0.6,0.5l0.9,0.7
		l0.6,1l0.2,0.4l1.2-0.8l-1-2.6l-0.8-1.9l0.1-0.4l0.4-2.9l-0.3-0.8l0.9-1.8l1-2l-0.9-0.9l0.7-1l0.5-0.1l0.6-0.2l0.6,0.5l0.7,0.6
		l0.9,0.3l1.1-0.4l0.6-0.6v-0.6l0.4-0.3h1.4l1,0.4l0.6-0.3l1.2-1.6l0.2-0.3l-0.1-0.5l0.4-2.1l0.5,0.1l0.3-1.7l-0.5-1.7l0.6-1.4
		l0.2-1.4l0.1-0.5l-0.1-0.3l-0.5-1.5l-0.6-1.4l-1.1-1.7l-0.6-0.4l-0.4-0.2l-0.8-0.3l-0.7-0.2l-0.2-0.1l-0.3-0.1v0.4h-0.4h-0.3h-0.3
		l-0.2,0.5h-0.7l-1.2-0.8l-0.9-0.7l-0.4-0.2l-0.2,0.3l-0.4-0.2H296l-0.7,0.3l-2.7-0.1l-0.5-0.5h-0.4v-0.8l0.2-0.4l-0.3-0.3l0.8-1.3
		l1-0.3l0.8-0.1l0.9,0.4l2-1.2l1.3-1l0.9-1.4l-0.1-1.2v-0.8l-0.5-0.7l-0.7,0l-0.4-0.6l-0.7-1.7l-0.5-1.1l-0.2-1.1l0.4-1.7l0.5-1.6
		l0.5-0.4l0.8,0.2h0.4l0.4-0.2l0.8-1l0.4-0.8l-0.2-0.4l0.3-1l0.2-0.9l-0.5-1.5v-1.7l0.2-0.9l1.1-1l0.9-0.5l0.9,0.1l0.6-0.4l0.2,0.2
		l0.6,0.4l0.8,2.5l0.2,0.8l0.6,0.5l0.9,0.9l0.1,4.3l-0.7,2.2l0.8,2.1l1.7,2.3l0.4,1.7l0.7,1l1,0.7l1.2,1.8l-0.3,1l0.5,1.1l0.3,0.4
		l0.2,0.4l0.7,0.5l-0.5,0.5l0.3,0.6l0.5,0.4l0.7,0.2l0.4,0.3l0.8,0.6l0.5,1.2l-0.5,3.4l-0.3,1l-0.8,1.3l0.2,1.1l0.7,0.4l0.2,1
		l0.5,1.3l1.9,1.3l0.1,0.8l-0.3,1l0.9,1.6l1,1.1l0.4,0.8l0.4,1.5l0.7,1.8l0.6,1.4l-0.4,1.8l0.5,1.6l0.5,1.7l0.1,1.2v1.7l1.2,0.8
		l-1,1.1l-0.9,2l-1.7,1.1l-1,1.1l-0.4,0.7l0.1,0.6l1.2,0.7l-0.1,0.6l-0.7,0.2l-0.8,0.6l0.2,0.9l0.3,1.5v1.2l-0.1,0.8l-0.1,1.3
		l0.1,1.6l0.3,0.1l-0.1,1.1l-1.4,0.9l-0.3,2.2l1.2,1.2l0.2,2.7l-1.4,3l-1,0.9l-0.9,2.3l0.4,0.8l-1.6,3.3l-0.1,0.6v0.9l-0.7,0.9
		l-0.9,0.6l-1.2,0.4l-0.7,0.3l-1.3,0.3l0.2,1.7l-0.2,1l0.9,1.4l1,1.7l-0.4,0.7l0.2,0.9l0.4,0.5l0.2,1l0.7,0.1l0.2,1.6l-0.1,2.1
		l-0.1,0.9l-0.6,2.6v1.5l0.1,0.8l0.8,1.9v1.7l-0.8,2.4l-0.2,2.7l0.4,1.8l-0.5,1.7l-0.1,1.8l1.1,2.1l1.1,3.1l0.2,2.5l-1,2.5v0.9
		l-0.5,3.3l-0.3,0.4l-0.2,0.4l-0.2,0.6l0.2,0.3l-0.6,1.4l-0.6,0.1l-0.4,0.5l-0.6,0.1l-0.3,0.4l0.4,0.3h0.2l-0.1,1l0.3,1.8l-0.4,0.2
		v0.6l-0.6,1l0.2,0.2l0.2,0.2l0.5-0.9l0.3,0.1l0.2,1l-0.3,0.5l-0.1,0.6l-0.3,0.1l-0.1,0.6l-0.2,0.2v0.8l0.2,0.2v0.3l-0.2,0.2
		l-0.2,0.4l0.2,0.7l0.5,0.5l0.6,1.1l0.1,1.1v0.7l0.2,0.9l0.4,0.5l0.8,0.1l0.3,1l-0.2,0.7v0.6l0.4,0.4l0.4,1l0.2,1l0.2,0.3l0.1,0.6
		v0.6l0.2,0.5l0.1,0.6l0.6,0.8l1,0.7l0.2,0.4l-0.1,0.9l-0.2,0.3l-0.2,0.2l-0.1,0.5l0.1,0.3l0.1,0.4l1.1,1.7l0.2,0.7l-0.3,0.2v0.5
		l-0.3,0.1l0.6,0.4l0.5,0.6l-0.1,2.2v1l0.2,0.4l0.6,0.3l0.1,0.3l-0.3,0.3l0.1,2.4l-1.1,0.3l0.8,1.2l0.2,1.7l-0.2,0.8l-0.5,0.6
		l-0.5,2.5l0.6,0.7l0.4,0.9l-0.1,0.5l0.3,0.5l-0.3,0.5l-0.4,0.5l0.2,0.7l-0.4,0.4l-0.1,0.7l0.1,0.4l0.3,0.1l0.2-0.1l0.3,0.1l0.4,0.7
		l-0.6,0.4h-0.3l-0.2-0.2l-0.3,0.1v0.2l-0.1,0.4l-0.8,0.4l0.2,0.7l-0.3,0.3l-0.4,0.4l0.5,0.5l-0.3,0.5l-1-0.3l-0.2-0.2l-0.5,0.4
		l-0.2,0.5l0.2,0.2l-0.2,0.6l0.1,0.4h-0.3l-0.1,0.2l0.1,0.6H313v-0.5l-0.4-0.3l-0.8,0.6v0.5l-0.8,0.5l-0.4-0.2l-0.3-0.5l-0.1,0.1
		l-1-0.1h-0.5l-0.2-0.5l-0.1-1l-0.3-0.5l-0.4-0.1l-0.8-0.8l0.1-0.3l0.7-1l-0.2-0.5l-0.7-0.4l-0.5-1.1l-0.1-0.8l0.1-1l0.4-0.8
		l-0.1-0.4l-0.4-0.2l-0.1-0.1l-0.7-0.3l-1.3-0.3l-1-0.1l-0.8-0.1h-0.9l-1.8,0.2l-1.1,0.4l-1,0.4l-2.1,1l-1.8,0.8l-1.2,0.7l-1.8,1.2
		l-0.5,0.4l-1.4,1.1l-0.8,0.8l-1.4,1.6l-0.8,1l-0.6,1l-0.3,0.6v0.8l0.3,0.8l-0.1,0.9h1l0.2,1.2l0.2,1l0.8,0.8l-0.3,0.4l0.2,0.3
		l0.3,0.9l-0.4,1l-0.4-0.1l-0.5-0.5l-1,0.8v0.2v0.4l0.3,0.8l0.3,0.5l0.5,0.6l0.5,0.5l0.5,0.7l0.4,0.4l0.5,0.4l0.6,0.3l0.2,0.2l1.2,1
		l1,1l-0.5,0.9l-0.9,1.2l-0.8,0.7l-0.3,0.3l-1.6,0.4l-1-2.1l-1.5-0.2l-2.1-0.3l-1.8,0.1l-0.7,0.7l-0.1,0.9l1.1,0.8l-1.2,1.4h-0.8
		l-1.6-0.4l-0.6-0.1l-0.7,0.3l-1.2,1.2l-0.7,1v0.4v0.1v1.3l0.1,0.9v0.5L274,421l-0.5-0.1l-0.6,0.5l-1.5,0.5l-0.3,0.3l-0.7,0.7
		l-0.5,1l-0.3,1l-0.4,1.6l0.2,1.5l0.2,1l0.7,0.9l0.6,0.2l0.6,0.1l0.6,0.9l0.4,0.5l0.5,0.6v0.6l0.1,0.7L273,434l0.2,0.5l0.4,0.6
		l0.3,0.4l0.2,0.2l-0.3,0.7l-0.3,1l-0.2,0.8l-0.3,0.6l-0.1,0.6l0.2,0.6l0.1,0.6v0.4l0.3,0.3l0.5,0.2l0.1,0.6l-0.1,1l0.1,0.4
		l-0.3,0.4l0.2,0.4l-0.3,0.6l0.2,0.7l-0.7,0.5C373.5,425.4,449,336.7,449,230.4z M73.4,252.6l-0.4-0.1l-1.2,1.7l0.2,1.3l-0.2,0.5
		l-1.3,1.9l-0.3,0.3l-0.5-0.1l-0.9,0.6l-0.5-0.1l-1.1-0.4l-0.4,0.1l-0.1,0.3l-1.9-0.6l0.3-1l-0.4-0.2l0.9-2.3l0.2-0.6l0.1-0.2
		l0.5-1.1l0.5,0.2l0.6,0.2l0.7-1.6v-0.3l0.8-1.2l0.5-0.5l1-0.1l1.2,0.1h0.1l2,0.5l0.5,0.2v-1l2.5-0.1l0.1,1.5L73.4,252.6z
		 M79.3,311.9h-0.7h-0.2l-0.2-0.1l0.2-0.1h0.2h0.7V311.9z M79.6,309.3l0.5-0.5l0.2,0.2l-0.4,0.5l-0.6,0.6l0.7-0.6v-0.1h0.3v0.2h-0.1
		l-0.6,0.7L79,311l-0.4,0.3l-0.2,0.2h-0.1l-0.1-0.1v-0.1l0.1-0.2l0.4-0.4l0.5-0.5l-0.7,0.6l-0.5,0.4l-0.3,0.2l-0.2,0.1l0.1-0.2
		l0.2-0.2l0.4-0.5L79,310L79.6,309.3z M108,269.2L108,269.2l-0.1,0.2l0,0L108,269.2h-0.2v-0.1L108,269.2L108,269.2L108,269.2z
		 M151.5,262.1L151.5,262.1l-0.3,0.2H151l-0.8,0.8l-0.3,0.2l0.1,0.4h-0.2h-0.1l-0.1-0.1v-0.1h-0.1h-0.1v-0.1l-0.1,0.1l-0.1-0.2
		l0.1-0.1l-0.2-0.4l0.3-0.2l0.1,0.1l0.4-0.5l0.2-0.2l0.5-0.3l0.3-0.1l-0.1-0.1l0.1-0.1l0.1,0.2h0.1h0.2l0.1,0.1l0.1,0.2V262.1z
		 M195.3,289.8l-0.1,0.2l0.1,0.4l-0.1,0.3l-0.2,0.1l0.1,0.3l-0.2,0.2h-0.5H194l-0.1-0.1l-0.2-0.1l-0.3-0.3l-0.1-0.5l-0.2-0.1
		L193,290v-0.2l-0.2-0.5v-0.5l-0.6-0.6l-0.2-0.4l-0.3-0.3v-0.4l-0.3-0.3l0.1-0.3h0.3l0.5,0.1l0.7,0.1v0.1l0.3,0.1l0.7,0.3l0.3,0.3
		l0.3,0.4l0.5,0.8l0.2,0.2L195.3,289.8L195.3,289.8z M241.6,275.5l-0.1,0.3l-0.1,0.3l-0.2,0.2l-0.1,0.1v0.5l0.1,0.2l0.1,0.2
		l-0.1,0.2l-0.2,0.1h-0.4l-0.1,0.3l-0.2,0.2h-0.1l0.1-0.3v-0.4V277l-0.3-0.2l-0.2-0.1l-0.2-0.2l-0.2-0.8l-0.3-0.2l-0.3,0.1l-0.2-0.1
		l-0.2-0.2l-0.2-0.4v-0.3l-0.1-0.3l-0.3-0.2l-0.1-0.2l0.1-0.4l0.1-0.3l-0.3-0.2l-0.1-0.4l0.1-0.2l0.2-0.3l0.1-0.3l0.1-0.4l0.2-0.2
		h0.3l0.3,0.2l0.2,0.2l0.4-0.3h0.3v0.1v0.1l-0.1,0.1v0.2l0.2,0.2l0.2,0.1l0.1,0.3l0.1,0.3l0.3,0.2l0.3,0.2l0.1,0.3l-0.1,0.4l0.2,0.2
		l0.2,0.1l0.2,0.3l0.1,0.2v0.2l0.1,0.3L241.6,275.5L241.6,275.5z"/>
</g>
<g>
	<path class="track" d="M284.3,391.3l0.9,0.9l7.6-6.6l8.5-2.8h5.7l0.9,1.9v-1.9l1.9,1.9v-1.9h1.9l-1.9-3.8l1.9-1.9l-0.9-3.8l5.7-1.9
		l-0.9-4.7l-7.6-9.5v-7.6l-2.8-2.8l2.8-6.6v-4.7l4.7-10.4v-3.8l-1.9-1.9l-6.6-1.9l1.9-9.5h5.7v-12.3l-0.9,1.9l-0.9-4.7l0.9-0.9
		l-3.8-3.8h-1.9v-5.7l5.7,0.9l1.9-1.9l1.9-7.6l-0.9-0.9l3.8-1.9v-10.4h-1.9l1.9-1.9l0.9-6.6l2.8-3.8v-3.8l-3.8-15.2l-4.7-6.6
		l1.9-1.9l-0.9-3.8l-3.8-0.9l-1.9,1.9l-3.8-3.8v-1.9l-0.9,0.9l-2.8-2.8l-2.8-5.7l4.7-9.5h1.9V191l-2.8,0.9v4.7l-4.7,5.7l3.8,7.6
		l-5.7,5.7l3.8,1.9l4.7-0.9l2.8,4.7v7.6l-1.9,3.8l1.9,5.7l-8.5,0.9l-2.8,8.5l-6.6,9.5l-8.5,2.8h1.9l-6.6-9.5L271,248l-2.8-0.9
		l-8.5,4.7l1.9,10.4l9.5,10.4l0.9,2.8l-3.8,1.9l2.8,4.7l-0.9,6.6l3.8,3.8h1.9l0.9,3.8l2.8,2.8l-0.9,4.7l-2.8,0.9v3.8l-1.9,1.9
		l-2.8-1.9l-7.6,7.6l-4.7-3.8l-5.7,3.8l-1.9,4.7h-7.6l-19-7.6l-4.7,6.6L214,322l-0.9-2.8l-0.9,0.9v-2.8h-1.9v10.4l-0.9,1.9l-3.8,0.9
		l-3.8-0.9v-3.8l-5.7-0.9l-2.8-3.8l0.9,1.9l-1.9,3.8l-4.7-0.9l-2.8-2.8v-5.7l3.8-6.6l0.9-8.5l-0.9,4.7h-8.5v7.6l-1.9-1.9l-0.9-6.6
		L178,322l-4.7,6.6l-3.8,0.9l-5.7-2.8l0.9-0.9l-1.9-2.8l-3.8,0.9v-3.8l-2.8-0.9l-2.8-6.6l0.9-3.8l-2.8-0.9l-2.8-5.7v-6.6l-8.5,15.2
		l-4.7-0.9l5.7-11.4l-5.7,10.4l-1.9-0.9l1.9-6.6l-0.9-1.9l9.5-12.3l-1.9-9.5H140l-3.8,10.4l-5.7,2.8l-3.8-2.8l0.9-7.6l-1.9-3.8
		l-2.8-1.9l0.9-6.6L121,267l-0.9,4.7l-0.9-0.9v1.9l-3.8,3.8v6.6h-8.5l-0.9-5.7l1.9-6.6l-2.8-3.8l4.7-1.9l-5.7-6.6l3.8,2.8v1.9
		l-4.7,1.9l-6.6,10.4l2.8,0.9l16.1-31.3v-11.4h2.8l7.6,4.7l5.7,5.7l-0.9,5.7h2.8h-2.8l1.9-4.7l-1.9-2.8l1.9-2.8l-5.7-4.7l-3.8-0.9
		l-0.9-3.8l1.9-2.8l6.6,2.8l-1.9-6.6l-7.6-4.7l2.8-5.7l7.6,2.8l2.8,5.7l-1.9-4.7h4.7l3.8,3.8l0.9-0.9l4.7,9.5l-1.9,2.8l0.9,0.9
		l1.9-0.9l-2.8-5.7l1.9-19l4.7,6.6l2.8,7.6v4.7l12.3,13.3l-0.9-7.6l-2.8-4.7l0.9-10.4l-4.7-8.5l0.9-1.9H158l0.9-3.8l5.7,0.9
		l2.8-11.4l4.7,15.2l-1.9,5.7l4.7,1.9l-0.9,5.7h1.9l0.9-6.6l0.9,0.9l2.8-3.8l4.7,3.8l-0.9,10.4l3.8,2.8v3.8l1.9,0.9l4.7-2.8
		l10.4,8.5h-1.9l-0.9,7.6l2.8,10.4l1.9,1.9l2.8-2.8v-19.9l-3.8-6.6v-6.6l1.9-1.9l5.7,2.8l2.8-0.9l0.9,2.8h7.6l-0.9-0.9l1.9-1.9
		l-2.8-4.7l1.9-2.8V211l2.8-2.8l3.8,0.9v1.9l4.7-3.8l-0.9-0.9l3.8-1.9l0.9-2.8h1.9l-1.9-3.8l1.9-7.6l-0.9-11.4l4.7-5.7h2.8l6.6,6.6
		l-2.8-0.9l-1.9-6.6l-6.6,1.9l-2.8,9.5l-8.5-0.9v-4.7l2.8-2.8l-7.6-0.9l-4.7-4.7l-1.9-8.5l4.7-3.8l-1.9,0.9l-1.9-1.9l-0.9-7.6
		l2.8-2.8h1.9l-3.8-1.9l1.9-1.9v-4.7l-2.8-2.8l-3.8,0.9l-4.7-9.5l-5.7-0.9l1.9-10.4l3.8-5.7v-1.9l-4.7-3.8l-0.9-18h6.6l2.8-1.9
		l0.9-2.8l2.8,0.9l-1.9,8.5l6.6-1.9v5.7l1.9,2.8V98l-5.7,6.6l7.6,7.6v2.8h3.8l9.5,3.8l1.9-0.9l1.9,4.7l4.7,2.8l-0.9,0.9l1.9,1.9v7.6
		l-1.9,2.8l1.9-1.9v-8.5l-1.9-1.9l0.9-1.9l0.9,0.9l3.8-2.8l6.6-1.9l4.7-7.6l4.7-2.8h3.8l8.5,5.7l-1.9-2.8l3.8-3.8v-1.9l-7.6-10.4
		l-3.8-1.9l-0.9-5.7l-4.7-8.5h-9.5l3.8-8.5l5.7-1.9l9.5,6.6l1.9,4.7h1.9l3.8-2.8l4.7,1.9l4.7-3.8l6.6,1.9l0.9-1.9l0.9,0.9l0.9-2.8
		h3.8l3.8,2.8l13.3-9.5l3.8,8.5h3.8l5.7,6.6h14.2v-1.9l6.6,7.6v4.7l-1.9,3.8l-2.8,1.9l-2.8,9.5l-3.8,2.8l-1.9-1.9L346,117l-4.7,3.8
		l-6.6,14.2l0.9,2.8l9.5,2.8l10.4,6.6v2.8l2.8,2.8v3.8h-6.6l3.8-5.7"/>
</g>
</svg>
